<?xml version="1.0" standalone="no"?>
<!DOCTYPE svg PUBLIC "-//W3C//DTD SVG 1.1//EN" "http://www.w3.org/Graphics/SVG/1.1/DTD/svg11.dtd" >
<svg xmlns="http://www.w3.org/2000/svg">
<metadata>Generated by IcoMoon</metadata>
<defs>
<font id="icomoon" horiz-adv-x="1024">
<font-face units-per-em="1024" ascent="960" descent="-64" />
<missing-glyph horiz-adv-x="1024" />
<glyph unicode="&#x20;" horiz-adv-x="512" d="" />
<glyph unicode="&#xe600;" glyph-name="ic-asterisk" horiz-adv-x="1081" d="M654.885 600.706v372.094h-238.14v-372.094l-336.373 130.977-80.372-229.208 345.303-116.093-220.279-291.721 199.442-145.861 208.372 306.603 220.279-306.603 196.465 145.861-220.279 291.721 351.256 116.093-80.372 229.208-345.303-130.977z" />
<glyph unicode="&#xe601;" glyph-name="ic-admin-glb" d="M541.12 117.76h-497.92c-6.4 0-12.48 2.56-16.96 7.040s-7.040 10.56-7.040 17.28c0 4.48 1.28 111.040 22.080 173.12 16.32 49.6 94.080 75.2 192.32 107.84 25.28 8.32 50.88 16.96 75.84 25.92v73.28c-20.8 14.4-56.64 49.6-61.76 121.28-15.040 10.24-24.64 31.68-24.64 58.24 0 14.72 3.2 28.8 8.96 39.68 3.2 6.080 7.040 10.88 11.52 15.040-9.6 32.32-24 88 4.16 118.72 12.16 13.12 29.12 19.2 50.24 18.56 25.92 41.92 93.76 57.28 149.44 57.28 64 0 144-20.16 158.080-77.44 11.2-45.44-4.16-89.6-14.4-115.52 11.84-11.84 18.88-31.040 18.88-54.72 0-15.040-3.2-29.12-8.64-40.32-4.16-8.32-9.6-14.72-16.32-19.2-4.8-72-40.64-106.88-61.76-121.6v-73.28c24.64-8.96 48.96-16.96 72-24.64l14.4-4.8-15.040-45.44-14.4 4.8c-28.48 9.28-59.2 19.52-89.28 31.040-9.28 3.52-15.68 12.48-15.68 22.4v103.68c0 9.6 5.76 18.56 14.72 22.080 1.6 0.64 47.36 22.080 47.36 102.4 0 12.16 8.96 22.080 20.8 23.68 4.8 7.68 4.8 30.4 0 38.4-11.84 1.6-20.8 11.52-20.8 23.68 0 7.040 2.56 13.12 6.72 24 8 20.16 23.040 57.92 14.72 91.52-5.76 23.040-54.72 40.96-111.36 40.96s-105.92-17.92-111.36-40.96c-3.2-12.48-15.68-20.16-28.16-17.6-14.4 2.88-22.4 1.28-24.64-1.28-7.68-8.32-5.12-34.24 7.36-77.44 3.2-10.88 4.8-16.64 4.8-22.080 0-12.16-9.28-22.4-21.12-23.68-4.48-7.36-4.48-28.16 0-35.2 11.84-1.6 21.12-11.52 21.12-23.68 0-80 45.76-101.44 47.68-102.4 8.64-3.84 14.4-12.48 14.4-22.080v-103.68c0-9.92-6.080-18.88-15.36-22.4-30.72-11.52-62.72-22.080-93.44-32.32-68.16-22.4-152.96-50.56-161.92-77.12-12.8-38.4-17.28-100.48-18.88-134.4h472.96v-48.64zM831.36 76.48c-24.64 0-44.8 20.16-44.8 44.8s20.16 44.8 44.8 44.8c24.64 0 44.8-20.16 44.8-44.8 0-24.96-20.16-44.8-44.8-44.8zM831.36 124.48c-1.92 0-3.2-1.6-3.2-3.2 0-3.52 6.4-3.52 6.4 0 0 1.6-1.6 3.2-3.2 3.2zM997.12-48h-331.84c-13.12 0-24 10.88-24 24v248.96c0 13.12 10.88 24 24 24h331.84c13.12 0 24-10.88 24-24v-248.96c0-13.44-10.56-24-24-24zM689.28 0h283.84v200.96h-283.84v-200.96zM831.36 34.88c-13.12 0-24 10.88-24 24v41.6c0 13.12 10.88 24 24 24s24-10.88 24-24v-41.6c0-13.12-10.88-24-24-24zM955.84 200.96c-13.12 0-24 10.88-24 24v41.6c0 55.36-45.12 100.48-100.48 100.48s-100.48-45.12-100.48-100.48v-41.6c0-13.12-10.88-24-24-24s-24 10.88-24 24v41.6c0 81.92 66.56 148.48 148.48 148.48s148.48-66.56 148.48-148.48v-41.6c0-13.44-10.88-24-24-24z" />
<glyph unicode="&#xe602;" glyph-name="ic-back" d="M512.091 972.8c-279.421 0-505.291-224.972-510.279-503.215-1.139-2.638-1.805-5.708-1.812-8.933 0.001-282.392 229.552-511.852 512.091-511.852s512 229.46 512 512c0 282.539-229.461 512-512 512zM512.091 926.427c257.484 0 465.627-208.143 465.627-465.627s-208.143-465.627-465.627-465.627c-257.484 0-465.718 208.143-465.718 465.627s208.234 465.627 465.718 465.627zM661.171 760.682c-0.012 0-0.026 0-0.041 0-5.445 0-10.451-1.877-14.408-5.018l-361.332-276.478c-5.531-4.281-9.058-10.922-9.058-18.386s3.527-14.105 9.005-18.346l361.433-276.192c3.859-2.973 8.762-4.765 14.084-4.765 12.811 0 23.196 10.385 23.196 23.196 0 7.489-3.549 14.15-9.058 18.391l-337.342 257.716 337.288 258.038c5.739 4.271 9.416 11.034 9.416 18.655 0 12.805-10.379 23.185-23.182 23.189z" />
<glyph unicode="&#xe603;" glyph-name="ic-forward" d="M512-51.2c279.421 0 505.291 224.972 510.279 503.215 1.139 2.638 1.805 5.708 1.812 8.933-0.001 282.392-229.552 511.852-512.091 511.852s-512-229.46-512-512c0-282.539 229.461-512 512-512zM512-4.827c-257.484 0-465.627 208.143-465.627 465.627s208.143 465.627 465.627 465.627c257.484 0 465.718-208.143 465.718-465.627s-208.234-465.627-465.718-465.627zM362.92 160.918c0.012 0 0.026 0 0.041 0 5.445 0 10.451 1.877 14.408 5.018l361.332 276.478c5.531 4.281 9.058 10.922 9.058 18.386s-3.527 14.105-9.005 18.346l-361.433 276.192c-3.859 2.973-8.762 4.765-14.084 4.765-12.811 0-23.196-10.385-23.196-23.196 0-7.489 3.549-14.15 9.058-18.391l337.342-257.716-337.288-258.038c-5.739-4.271-9.416-11.034-9.416-18.655 0-12.805 10.379-23.185 23.182-23.189z" />
<glyph unicode="&#xe604;" glyph-name="ic-left" d="M808.009 972.685c-9.975-0.716-18.955-4.473-26.149-10.338l-622.942-450.026c-11.74-8.557-19.282-22.262-19.282-37.727s7.542-29.17 19.149-37.635l624.678-450.819c7.556-5.516 17.028-8.825 27.273-8.825 25.71 0 46.553 20.842 46.553 46.553 0 15.465-7.541 29.169-19.147 37.635l-572.496 413.183 572.364 413.455c12.049 8.529 19.82 22.412 19.82 38.11 0 25.709-20.841 46.55-46.55 46.55-1.151 0-2.291-0.042-3.421-0.124z" />
<glyph unicode="&#xe605;" glyph-name="ic-right" d="M189.456-22.571c9.975 0.716 18.955 4.473 26.149 10.338l622.942 450.026c11.74 8.557 19.282 22.262 19.282 37.727s-7.542 29.17-19.149 37.635l-624.678 450.819c-7.556 5.516-17.028 8.825-27.273 8.825-25.71 0-46.553-20.842-46.553-46.553 0-15.465 7.541-29.169 19.147-37.635l572.496-413.183-572.364-413.455c-12.049-8.529-19.82-22.412-19.82-38.11 0-25.709 20.841-46.55 46.55-46.55 1.151 0 2.291 0.042 3.421 0.124z" />
<glyph unicode="&#xe606;" glyph-name="ic-contact-glb" d="M782.72-12.48c-32 0-64.32 8.96-92.8 27.84-248 163.84-465.6 381.76-629.76 629.44-43.84 66.56-34.88 155.52 21.44 211.84l55.68 55.68c45.44 45.44 124.8 45.44 169.92 0l101.76-101.76c46.72-46.72 46.72-123.2 0-169.92 0 0 0 0 0 0l-18.24-18.24c82.88-98.88 177.92-193.92 276.8-276.8l18.24 18.24c45.44 45.44 124.8 45.44 170.24 0l101.44-101.76c22.72-22.72 35.2-52.8 35.2-85.12 0-32-12.48-62.4-35.2-85.12l-55.68-55.68c-32.64-32-75.52-48.64-119.040-48.64zM222.4 898.56c-18.24 0-36.48-7.040-50.56-20.8l-55.68-55.68c-40-40-46.4-103.040-15.040-150.080 160.32-242.56 373.44-455.36 616-616 47.040-31.040 110.4-24.96 150.080 15.040l55.68 55.68c13.44 13.44 20.8 31.36 20.8 50.56s-7.36 37.12-20.8 50.56l-101.76 101.76c-26.88 26.88-73.92 26.88-101.12 0l-33.92-33.92c-8.96-8.96-23.040-9.6-32.64-1.6-113.28 92.8-222.080 201.6-314.56 314.88-8 9.6-7.36 24 1.6 32.64l33.92 33.6c27.84 27.84 27.84 72.96 0 100.8l-101.76 101.76c-13.76 13.76-32 20.8-50.24 20.8zM391.68 657.92v0 0z" />
<glyph unicode="&#xe607;" glyph-name="ic-datepicker" horiz-adv-x="1025" d="M23.604 879.709c-12.853-0.001-23.271-10.42-23.273-23.273v-884.364c0.001-12.853 10.42-23.271 23.273-23.273h977.455c12.853 0.001 23.271 10.42 23.273 23.273v884.364c-0.001 12.853-10.42 23.271-23.273 23.273h-139.636c-0.098 0.001-0.213 0.002-0.329 0.002-12.854 0-23.275-10.421-23.275-23.275s10.421-23.275 23.275-23.275c0.116 0 0.231 0.001 0.347 0.003h116.346v-837.818h-930.909v837.818h116.364c0.098-0.001 0.213-0.002 0.329-0.002 12.854 0 23.275 10.421 23.275 23.275s-10.421 23.275-23.275 23.275c-0.116 0-0.231-0.001-0.347-0.003h-139.619zM163.241 972.8c-12.853-0.001-23.271-10.42-23.273-23.273v-186.182c0.001-12.853 10.42-23.271 23.273-23.273h139.636c12.853 0.001 23.271 10.42 23.273 23.273v186.182c-0.001 12.853-10.42 23.271-23.273 23.273h-139.636zM186.513 926.255h93.091v-139.636h-93.091v139.636zM721.786 972.8c-12.853-0.001-23.271-10.42-23.273-23.273v-186.182c0.001-12.853 10.42-23.271 23.273-23.273h139.636c12.853 0.001 23.271 10.42 23.273 23.273v186.182c-0.001 12.853-10.42 23.271-23.273 23.273h-139.636zM745.059 926.255h93.091v-139.636h-93.091v139.636zM302.877 879.709c-0.098 0.001-0.213 0.002-0.329 0.002-12.854 0-23.275-10.421-23.275-23.275s10.421-23.275 23.275-23.275c0.116 0 0.231 0.001 0.347 0.003h418.892c0.098-0.001 0.213-0.002 0.329-0.002 12.854 0 23.275 10.421 23.275 23.275s-10.421 23.275-23.275 23.275c-0.116 0-0.231-0.001-0.347-0.003h-418.892zM23.604 646.982c-0.098 0.001-0.213 0.002-0.329 0.002-12.854 0-23.275-10.421-23.275-23.275s10.421-23.275 23.275-23.275c0.116 0 0.231 0.001 0.347 0.003h977.437c0.098-0.001 0.213-0.002 0.329-0.002 12.854 0 23.275 10.421 23.275 23.275s-10.421 23.275-23.275 23.275c-0.116 0-0.231-0.001-0.347-0.003h-977.437zM255.968 554.255c-12.697-0.204-22.912-10.545-22.912-23.272 0-0.128 0.001-0.256 0.003-0.383v-418.89c-0.001-0.098-0.002-0.213-0.002-0.329 0-12.854 10.421-23.275 23.275-23.275s23.275 10.421 23.275 23.275c0 0.116-0.001 0.231-0.003 0.347v418.892c0.002 0.108 0.003 0.236 0.003 0.364 0 12.854-10.421 23.275-23.275 23.275-0.128 0-0.256-0.001-0.383-0.003zM488.695 554.255c-12.697-0.204-22.912-10.545-22.912-23.272 0-0.128 0.001-0.256 0.003-0.383v-418.89c-0.001-0.098-0.002-0.213-0.002-0.329 0-12.854 10.421-23.275 23.275-23.275s23.275 10.421 23.275 23.275c0 0.116-0.001 0.231-0.003 0.347v418.892c0.002 0.108 0.003 0.236 0.003 0.364 0 12.854-10.421 23.275-23.275 23.275-0.128 0-0.256-0.001-0.383-0.003zM721.422 554.255c-12.697-0.204-22.912-10.545-22.912-23.272 0-0.128 0.001-0.256 0.003-0.383v-418.89c-0.001-0.098-0.002-0.213-0.002-0.329 0-12.854 10.421-23.275 23.275-23.275s23.275 10.421 23.275 23.275c0 0.116-0.001 0.231-0.003 0.347v418.892c0.002 0.108 0.003 0.236 0.003 0.364 0 12.854-10.421 23.275-23.275 23.275-0.128 0-0.256-0.001-0.383-0.003zM116.695 460.8c-0.098 0.001-0.213 0.002-0.329 0.002-12.854 0-23.275-10.421-23.275-23.275s10.421-23.275 23.275-23.275c0.116 0 0.231 0.001 0.347 0.003h791.255c0.098-0.001 0.213-0.002 0.329-0.002 12.854 0 23.275 10.421 23.275 23.275s-10.421 23.275-23.275 23.275c-0.116 0-0.231-0.001-0.347-0.003h-791.255zM116.695 274.618c-0.098 0.001-0.213 0.002-0.329 0.002-12.854 0-23.275-10.421-23.275-23.275s10.421-23.275 23.275-23.275c0.116 0 0.231 0.001 0.347 0.003h791.255c0.098-0.001 0.213-0.002 0.329-0.002 12.854 0 23.275 10.421 23.275 23.275s-10.421 23.275-23.275 23.275c-0.116 0-0.231-0.001-0.347-0.003h-791.255z" />
<glyph unicode="&#xe608;" glyph-name="ic-dropdown" d="M39.306 768.060c-21.894-0.907-39.303-18.877-39.303-40.913 0-10.62 4.042-20.294 10.671-27.569l470.801-532.21c7.539-8.517 18.499-13.859 30.707-13.859s23.167 5.342 30.668 13.816l470.868 532.286c6.374 7.188 10.267 16.702 10.267 27.126 0 22.628-18.343 40.97-40.97 40.97-12.206 0-23.165-5.338-30.67-13.805l-440.161-497.614-440.124 497.571c-7.553 8.74-18.652 14.237-31.037 14.237-0.604 0-1.205-0.013-1.802-0.039z" />
<glyph unicode="&#xe609;" glyph-name="ic-lock-glb" horiz-adv-x="769" d="M384.894 287.858c-25.031 0-45.511 20.48-45.511 45.511s20.48 45.511 45.511 45.511c25.031 0 45.511-20.48 45.511-45.511s-20.48-45.511-45.511-45.511zM384.894 336.62c-1.625 0-3.251-1.3-3.251-3.251 0-3.576 6.502-3.576 6.502 0-0.325 1.95-1.625 3.251-3.251 3.251zM384.894 160.752c-13.328 0-24.381 11.053-24.381 24.381v127.106c0 13.328 11.053 24.381 24.381 24.381s24.381-11.053 24.381-24.381v-127.106c0-13.328-11.053-24.381-24.381-24.381zM745.082-51.2h-720.701c-13.328 0-24.381 11.053-24.381 24.381v593.595c0 13.328 11.053 24.381 24.381 24.381h720.701c13.328 0 24.381-11.053 24.381-24.381v-593.595c0-13.328-10.728-24.381-24.381-24.381zM48.762-2.438h671.939v544.833h-671.939v-544.833zM617.976 542.395h-466.489c-13.328 0-24.381 11.053-24.381 24.381v148.561c0 142.060 115.728 257.463 257.788 257.463s257.463-115.403 257.463-257.463v-148.561c0-13.328-10.728-24.381-24.381-24.381zM175.868 591.157h417.727v124.18c0 115.078-93.623 208.701-208.701 208.701s-208.701-93.623-208.701-208.701v-124.18z" />
<glyph unicode="&#xe60a;" glyph-name="ic-paginate-first" horiz-adv-x="745" d="M715.011-55.329c-8.946 0-17.892 3.441-24.086 10.323l-481.72 481.72c-13.763 13.763-13.763 35.097 0 48.86l481.72 481.72c13.763 13.763 35.097 13.763 48.86 0s13.763-35.097 0-48.86l-457.634-457.634 457.634-457.634c13.763-13.763 13.763-35.097 0-48.86-6.882-6.194-15.828-9.634-24.774-9.634zM26.839-55.329c-19.269 0-34.409 15.14-34.409 34.409v963.441c0 19.269 15.14 34.409 34.409 34.409s34.409-15.14 34.409-34.409v-963.441c0-18.581-15.14-34.409-34.409-34.409z" />
<glyph unicode="&#xe60b;" glyph-name="ic-paginate-last" horiz-adv-x="751" d="M34.133 972.8c8.875 0 17.749-3.413 23.893-10.24l477.867-477.867c13.653-13.653 13.653-34.816 0-48.469l-477.867-477.867c-13.653-13.653-34.816-13.653-48.469 0s-13.653 34.816 0 48.469l453.973 453.973-453.291 453.973c-13.653 13.653-13.653 34.816 0 48.469 6.144 6.144 15.019 9.557 23.893 9.557zM716.8 972.8c19.115 0 34.133-15.019 34.133-34.133v-955.733c0-19.115-15.019-34.133-34.133-34.133s-34.133 15.019-34.133 34.133v955.733c0 19.115 15.019 34.133 34.133 34.133z" />
<glyph unicode="&#xe60c;" glyph-name="ic-profile-glb" d="M992-51.2h-960c-13.12 0-24 10.88-24 24 0 3.84 0.64 92.48 44.16 180.16 31.36 62.4 136.32 101.12 281.92 154.56 16 5.76 32.64 11.84 49.28 18.24v96.64c-18.88 16.32-56.96 56.96-62.080 122.24-9.6 8.64-16.96 22.72-21.12 40.96-6.72 28.16-4.8 64.96 17.6 87.68-0.32 1.6-0.96 3.52-1.28 5.12-14.4 47.36-40.96 135.040-3.84 185.28 9.6 12.8 26.88 27.84 57.92 31.68 27.2 47.36 111.36 62.72 180.16 61.12 80.32-1.92 179.52-29.44 193.6-100.16 11.84-59.84-17.92-135.36-34.24-176-1.28-2.88-2.24-5.44-3.2-7.68 20.48-21.76 23.68-56.96 16.64-86.4-4.16-18.24-11.84-32.32-21.12-40.96-5.12-65.28-42.88-105.92-62.080-122.24v-96.96c16.64-6.4 33.28-12.16 49.28-18.24 145.6-53.44 250.88-92.16 282.24-154.56 43.84-87.68 44.16-176.32 44.16-180.16 0-13.76-10.88-24.32-24-24.32zM57.6-3.2h908.8c-2.88 29.76-11.84 82.88-37.76 134.72-22.72 45.44-130.88 85.12-255.68 131.2-21.12 7.68-42.88 15.68-65.28 24-9.28 3.52-15.68 12.48-15.68 22.4v125.12c0 8 3.84 15.36 10.56 19.84 1.92 1.28 51.84 36.48 51.84 105.28 0 10.56 7.040 19.52 16.64 22.72 4.16 6.72 9.6 25.6 6.72 42.56-1.6 8.96-4.8 14.72-9.92 17.28-8 4.16-13.12 12.48-13.12 21.44 0 7.68 3.2 15.36 10.56 34.24 14.4 36.16 40.96 103.040 31.68 149.12-6.72 33.92-68.8 59.84-147.52 61.76-77.44 1.6-134.080-20.16-139.52-41.92-2.56-10.56-12.16-18.24-23.36-18.24-25.6 0-32.96-10.24-35.52-13.44-22.72-30.72 1.92-112 11.2-142.72 4.48-15.36 6.72-22.080 6.72-28.8 0-8.96-5.12-17.28-13.12-21.44-5.12-2.56-8.64-8.32-9.92-17.28-2.88-17.28 2.56-36.16 6.72-42.56 9.6-3.2 16.64-12.16 16.64-22.72 0-69.76 51.52-104.96 51.84-105.28 6.72-4.48 10.56-11.84 10.56-19.84v-125.12c0-9.92-6.080-18.88-15.68-22.4-22.4-8.32-44.16-16.32-65.28-24-125.12-46.080-232.96-85.76-255.68-131.2-25.6-51.84-34.56-104.96-37.44-134.72z" />
<glyph unicode="&#xe60d;" glyph-name="ic-megamenu" horiz-adv-x="5372" d="M1822.070 890.545l286.085-762.953 287.328 762.953h165.36v-907.893h-114.448v755.295h-2.552l-283.533-755.295h-102.997l-283.602 755.295h-2.552v-755.295h-114.379v907.893h165.291zM3452.146 890.545v-101.72h-506.083v-288.638h471.727v-101.72h-471.727v-314.094h509.877v-101.72h-630.672v907.893h626.877zM3792.937 890.545l478.075-736.221h2.552v736.221h114.448v-907.893h-132.247l-474.28 728.598h-2.552v-728.598h-114.448v907.893h128.452zM5279.349 49.395c-61.881-58.052-150.045-87.095-264.493-87.095-116.931 0-208.269 27.767-274.014 83.301-65.675 55.499-98.512 143.871-98.512 265.114v579.829h120.795v-579.829c0-81.37 21.592-143.043 64.847-185.021 43.254-41.944 105.549-62.95 186.884-62.95 77.127 0 135.903 21.006 176.122 62.95 40.288 41.978 60.432 103.652 60.432 185.021v579.829h120.795v-579.829c0-116.138-30.975-203.268-92.855-261.32zM143.353 972.8c-78.864 0-143.353-64.489-143.353-143.353v-0.138c0-78.864 64.489-143.353 143.353-143.353h829.352c78.865 0 143.491 64.489 143.491 143.353v0.138c0 78.864-64.627 143.353-143.491 143.353h-829.352zM143.353 916.231h829.352c48.322 0 86.923-38.463 86.923-86.785v-0.138c0-48.322-38.6-86.923-86.923-86.923h-829.352c-48.322 0-86.785 38.601-86.785 86.923v0.138c0 48.322 38.463 86.785 86.785 86.785zM143.353 604.276c-78.864 0-143.353-64.627-143.353-143.491s64.489-143.353 143.353-143.353h829.352c78.865 0 143.491 64.489 143.491 143.353s-64.627 143.491-143.491 143.491h-829.352zM143.353 547.707h829.352c48.322 0 86.923-38.601 86.923-86.923s-38.6-86.923-86.923-86.923h-829.352c-48.322 0-86.785 38.601-86.785 86.923s38.463 86.923 86.785 86.923zM143.353 235.613c-78.864 0-143.353-64.489-143.353-143.353s64.489-143.491 143.353-143.491h829.352c78.865 0 143.491 64.627 143.491 143.491s-64.627 143.353-143.491 143.353h-829.352zM143.353 179.183h829.352c48.322 0 86.923-38.601 86.923-86.923s-38.6-86.923-86.923-86.923h-829.352c-48.322 0-86.785 38.601-86.785 86.923s38.463 86.923 86.785 86.923z" />
<glyph unicode="&#xe60e;" glyph-name="ic-download" d="M0 195.8v-84.353c0-79.637 65.657-145.294 145.294-145.294h719.824c79.637 0 145.294 65.657 145.294 145.294v84.353h-37.647v-84.353c0-58.904-48.743-107.647-107.647-107.647h-719.824c-58.904 0-107.647 48.743-107.647 107.647v84.353h-37.647zM484.882 957.741v-758.941h37.647v758.941h-37.647zM206.824 522.329l-26.647-26.647 310.235-310.177c3.405-3.396 8.104-5.497 13.294-5.497s9.889 2.1 13.295 5.497l310.235 310.176-26.647 26.647-296.882-296.941-296.882 296.941z" />
<glyph unicode="&#xe60f;" glyph-name="ic-print" d="M117.353 692.741c-56.368 0-102.294-50.983-102.294-111.353v-277.118c0-59.664 43.614-111.353 102.294-111.353h126.529v36h-126.529c-37.696 0-66.294 32.617-66.294 75.353v277.118c0 42.031 32.309 75.353 66.294 75.353h804.176c37.696 0 66.353-32.617 66.353-75.353v-277.118c0-42.031-32.368-75.353-66.353-75.353h-126.529v-36h126.529c56.368 0 102.294 50.983 102.294 111.353v277.118c0 59.664-43.614 111.353-102.294 111.353h-804.176zM243.882 972.8c-0.004 0-0.008 0-0.012 0-9.935 0-17.988-8.054-17.988-17.988 0-0.004 0-0.008 0-0.013v-186.705h36v168.765h395.588l116.529-130.471v-38.294h36v45.176c0 4.619-1.741 8.832-4.603 12.017l-126.456 141.513c-3.308 3.689-8.090 6-13.411 6 0 0 0 0-0.001 0h-421.647zM243.882 367.447c-0.004 0-0.008 0-0.012 0-9.935 0-17.988-8.054-17.988-17.988 0-0.004 0-0.008 0-0.013v-370.411c0-0.004 0-0.008 0-0.012 0-9.935 8.054-17.988 17.988-17.988 0.004 0 0.008 0 0.013 0h551.117c0.004 0 0.008 0 0.012 0 9.935 0 17.988 8.054 17.988 17.988 0 0.004 0 0.008 0 0.013v370.411c0 0.004 0 0.008 0 0.012 0 9.935-8.054 17.988-17.988 17.988-0.004 0-0.008 0-0.013 0h-551.117zM261.883 331.447h515.176v-334.471h-515.176v334.471zM328.177 237.917v-35.941h379.529v35.941h-379.529zM328.177 129.506v-35.941h379.529v35.941h-379.529zM647.529 954.8v-141.529c0-0.004 0-0.008 0-0.012 0-9.935 8.054-17.988 17.988-17.988 0.004 0 0.008 0 0.013 0h126.47v36h-108.471v123.529h-36z" />
<glyph unicode="&#xe610;" glyph-name="ic-help-glb" d="M75.974-34.684c-6.606 0-13.213 3.303-16.516 6.606-6.606 6.606-9.91 19.819-3.303 29.729l99.097 211.406c-85.884 82.581-135.432 188.284-135.432 303.897 0 244.439 221.316 439.329 495.484 439.329s495.484-198.194 495.484-439.329-221.316-439.329-495.484-439.329c-56.155 0-112.31 6.606-165.161 23.123l-264.258-132.129c-3.303-3.303-6.606-3.303-9.91-3.303zM512 906.735c-247.742 0-449.239-175.071-449.239-389.781 0-105.703 46.245-201.497 132.129-277.471 9.91-6.606 9.91-19.819 6.606-29.729l-75.974-161.858 211.406 105.703c6.606 3.303 9.91 3.303 16.516 0 49.548-16.516 102.4-26.426 158.555-26.426 247.742 0 449.239 175.071 449.239 389.781s-201.497 389.781-449.239 389.781zM531.819 384.826c-13.213 0-23.123 9.91-23.123 26.426v56.155c0 13.213 9.91 26.426 23.123 26.426 56.155 0 99.097 46.245 99.097 105.703s-46.245 105.703-99.097 105.703c-52.852 0-99.097-49.548-99.097-109.006 0-13.213-9.91-26.426-23.123-26.426s-23.123 9.91-23.123 26.426c0 89.187 66.065 161.858 145.342 161.858s145.342-69.368 145.342-155.252c0-79.277-52.852-142.039-122.219-155.252v-33.032c0-16.516-9.91-29.729-23.123-29.729zM531.819 262.606c-23.123 0-42.942 19.819-42.942 46.245s19.819 46.245 42.942 46.245c23.123 0 42.942-19.819 42.942-46.245 3.303-23.123-16.516-46.245-42.942-46.245zM531.819 315.458c0 0-3.303 0-3.303-3.303s6.606-3.303 6.606 0c0 0 0 3.303-3.303 3.303z" />
<glyph unicode="&#xe611;" glyph-name="ic-feedback" d="M465.904 972.876c-254.635 0-465.98-169.74-465.98-384.744 0-101.122 46.746-189.743 123.646-257.895l-79.024-178.032c-1.297-2.85-2.053-6.181-2.053-9.688 0-13.192 10.694-23.886 23.886-23.886 3.588 0 6.992 0.791 10.046 2.209l227.312 102.99c37.298-10.101 80.315-16.994 122.273-19.222l2.517 47.674c-42.64 2.264-88.294 8.847-121.739 18.917-2.072 0.651-4.455 1.026-6.925 1.026-3.543 0-6.905-0.771-9.929-2.155l-176.205-79.878 59.268 133.638c1.284 2.837 2.032 6.151 2.032 9.64 0 7.529-3.484 14.245-8.927 18.623-77.251 61.8-118.429 142.438-118.429 236.039 0 183.347 184.689 336.995 418.23 336.995s425.248-154.209 425.248-336.995c0-20.585-2.184-40.14-6.789-59.268l46.453-11.137c5.549 23.051 8.085 46.467 8.085 70.404 0 215.567-218.362 384.744-472.998 384.744zM893.593 463.57c-6.539-0.102-12.425-2.817-16.676-7.143l-318.183-318.487c-3.531-3.555-5.951-8.217-6.695-13.419l-41.894-145.314c-0.581-1.962-0.915-4.216-0.915-6.549 0-13.192 10.694-23.886 23.886-23.886 2.332 0 4.587 0.334 6.718 0.958l148.649 42.521c5.111 1.484 9.391 4.481 12.443 8.467l316.161 315.866c4.326 4.323 7.002 10.297 7.002 16.895s-2.676 12.572-7.001 16.895l-106.255 106.255c-4.317 4.292-10.268 6.945-16.838 6.945-0.141 0-0.281-0.001-0.421-0.004zM893.975 405.905l72.464-72.464-297.025-296.949-101.449-29.062 28.985 101.068 297.025 297.407zM826.087 371.503l-33.715-33.867 106.178-105.797 33.715 33.791-106.178 105.873zM575.362 145.188c-0.002 0-0.005 0-0.007 0-13.192 0-23.886-10.694-23.886-23.886 0-6.766 2.813-12.874 7.333-17.22l106.263-105.805c4.32-4.302 10.279-6.962 16.859-6.962 13.196 0 23.894 10.698 23.894 23.894 0 6.618-2.69 12.607-7.037 16.934l-106.256 105.798c-4.346 4.472-10.417 7.246-17.137 7.246-0.009 0-0.018 0-0.027 0z" />
<glyph unicode="&#xe612;" glyph-name="ic-clear" d="M512.153 972.609c-282.509 0-511.962-229.453-511.962-511.962s229.453-512.026 511.962-512.026c282.509 0 512.026 229.517 512.026 512.026s-229.517 511.962-512.026 511.962zM512.153 928.526c258.678 0 467.943-209.201 467.943-467.879s-209.265-467.943-467.943-467.943c-258.678 0-467.879 209.265-467.879 467.943s209.201 467.879 467.879 467.879zM244.657 482.656c-0.183 0.005-0.399 0.009-0.615 0.009-12.178 0-22.050-9.872-22.050-22.050s9.872-22.050 22.050-22.050c0.216 0 0.432 0.003 0.646 0.009l534.641-0.001c0.183-0.005 0.399-0.009 0.615-0.009 12.178 0 22.050 9.872 22.050 22.050s-9.872 22.050-22.050 22.050c-0.216 0-0.432-0.003-0.646-0.009l-534.641 0.001z" />
<glyph unicode="&#xe613;" glyph-name="ic-radio-dot" horiz-adv-x="1018" d="M733.307 460.8c0-122.22-99.079-221.301-221.301-221.301s-221.301 99.079-221.301 221.301c0 122.22 99.079 221.301 221.301 221.301s221.301-99.079 221.301-221.301z" />
<glyph unicode="&#xe614;" glyph-name="ic-checkbox-check" d="M816.114 726.971l-470.4-439.2-136.8 137.257-62.171-61.943 166.857-167.314c7.949-7.984 18.95-12.925 31.105-12.925 11.577 0 22.107 4.482 29.949 11.806l501.46 468.091-60 64.229z" />
<glyph unicode="&#xe615;" glyph-name="ic-refresh" horiz-adv-x="1344" d="M1142.5 611.175l-215.625-237.75c-6.697-7.135-10.811-16.763-10.811-27.352 0-22.094 17.91-40.004 40.004-40.004 11.957 0 22.689 5.246 30.020 13.562l149.288 164.544 124.5-173.25c7.356-10.141 19.167-16.66 32.501-16.66 22.11 0 40.033 17.923 40.033 40.033 0 8.777-2.825 16.894-7.614 23.493l-182.295 253.384zM36.25 591.175c-21.458-0.806-38.547-18.396-38.547-39.977 0-9.005 2.975-17.315 7.997-24.001l182.301-253.272 215.75 237.75c6.697 7.134 10.811 16.762 10.811 27.351 0 22.094-17.91 40.004-40.004 40.004-11.957 0-22.689-5.246-30.019-13.562l-149.413-164.669-124.5 173.25c-7.323 10.425-19.294 17.155-32.836 17.155-0.541 0-1.080-0.011-1.616-0.032zM661.375 968.8c-283.095 0-513.625-228.785-513.625-510.375 0-51.272-0.85-73.205 8.375-106.25l77 21.5c-6.794 24.335-5.375 32.379-5.375 84.75 0 238.053 193.468 430.375 433.625 430.375 136.336 0 257.476-62.225 337-159.5l61.875 50.625c-94.182 115.205-238.141 188.875-398.875 188.875zM1172.375 524.675l-77.5-19.875c2.219-8.662 3.047-13.387 3.25-14.625-0.486-1.985-3-11.918-3-31.75 0-238.075-193.573-430.5-433.75-430.5-129.772 0-245.613 56.386-325.125 145.75l-59.75-53.125c94.12-105.781 231.865-172.625 384.875-172.625 283.112 0 513.75 228.895 513.75 510.5 0 17.43 0.141 11.103 2.125 22 0.993 5.449 1.149 14.8 0.128 21.5-1.024 6.7-2.508 13.025-5 22.75z" />
<glyph unicode="&#xe616;" glyph-name="ic-404" horiz-adv-x="1095" d="M270 459.834c-129.954 0-235.448-107.329-235.448-238.759 0-131.391 105.489-238.759 235.448-238.759s235.379 107.368 235.379 238.759c0 3.087-0.634 6.027-1.779 8.695 0.055-0.133 0.055-0.121 0.055-0.108s0 0.025 0 0.037c-4.744 127.234-106.721 230.134-233.655 230.134zM270 415.697c105.737 0 191.241-86.666 191.241-194.621 0-107.907-85.51-194.621-191.241-194.621s-191.31 86.713-191.31 194.621c0 107.955 85.573 194.621 191.31 194.621zM419.31 939.214c-28.981 0-58.564-9.473-79.724-30.966-0.581 0.004-3.347-3.523-4.915-7.642l-62.395-169.048-60.69-61.655c-0.116 0.44-2.883-2.867-4.566-6.754l-128.055-303.453c-1.099-2.534-1.738-5.486-1.738-8.586 0-12.196 9.887-22.082 22.082-22.082 9.095 0 16.906 5.499 20.29 13.353l126.4 299.592 61.034 62c0.581-0.004 3.347 3.523 4.915 7.642l61.499 166.565c11.001 10.050 27.795 16.897 45.862 16.897 16.518 0 30.891-6.89 41.931-15.448v-160.207c-0.001-0.093-0.002-0.202-0.002-0.312 0-12.19 9.882-22.071 22.071-22.071s22.071 9.882 22.071 22.071c0 0.11-0.001 0.219-0.002 0.329v173.363c-0.005 6.009-2.426 11.471-6.348 15.451-21.158 21.489-50.74 30.963-79.721 30.963zM824.621 459.834c-129.954 0-235.379-107.329-235.379-238.759 0-3.087 0.634-6.027 1.779-8.695-0.055 0.133-0.055 0.121-0.055 0.108s0-0.025 0-0.037c4.744-127.201 106.716-230.136 233.655-230.136 129.959 0 235.448 107.368 235.448 238.759 0 131.43-105.495 238.759-235.448 238.759zM824.621 415.697c105.737 0 191.31-86.666 191.31-194.621 0-107.907-85.579-194.621-191.31-194.621s-191.241 86.713-191.241 194.621c0 107.955 85.504 194.621 191.241 194.621zM675.31 936.524c-28.981 0-58.564-9.473-79.724-30.966-3.923-3.982-6.345-9.451-6.345-15.486 0-0.011 0-0.022 0-0.033v-170.619c-0.001-0.093-0.002-0.202-0.002-0.312 0-12.19 9.882-22.071 22.071-22.071s22.071 9.882 22.071 22.071c0 0.11-0.001 0.219-0.002 0.329v157.501c11.040 8.558 25.413 15.448 41.931 15.448 18.067 0 34.861-6.846 45.862-16.897l61.448-163.793c-0.224-0.697 1.924-4.656 4.967-7.726l61.033-61.998 126.345-299.448c3.438-7.999 11.25-13.498 20.346-13.498 12.196 0 22.082 9.887 22.082 22.082 0 3.101-0.639 6.054-1.793 8.732l-127.945 303.167c0.411 0.133-1.688 3.93-4.623 6.899l-60.688 61.653-62.345 166.276c0.224 0.697-1.924 4.656-4.967 7.726-21.159 21.491-50.741 30.964-79.723 30.964zM547.31 654.869c-50.153 0-95.763-10.059-130.69-27.793s-62.069-45.283-62.069-80.966c-0.001-0.093-0.002-0.202-0.002-0.312 0-12.19 9.882-22.071 22.071-22.071s22.071 9.882 22.071 22.071c0 0.11-0.001 0.219-0.002 0.328 0 12.187 11.087 27.94 37.931 41.57s66.592 23.034 110.69 23.034c44.098 0 83.846-9.404 110.69-23.034s37.931-29.383 37.931-41.586c-0.001-0.093-0.002-0.202-0.002-0.312 0-12.19 9.882-22.071 22.071-22.071s22.071 9.882 22.071 22.071c0 0.11-0.001 0.219-0.002 0.329 0 35.666-27.142 63.215-62.069 80.949s-80.537 27.793-130.69 27.793zM482.966 648.869c-12.041-0.194-21.727-10-21.727-22.068 0-0.121 0.001-0.243 0.003-0.364v-405.361c-0.001-0.093-0.002-0.202-0.002-0.312 0-12.19 9.882-22.071 22.071-22.071s22.071 9.882 22.071 22.071c0 0.11-0.001 0.219-0.002 0.329v405.363c0.002 0.103 0.003 0.224 0.003 0.345 0 12.19-9.882 22.071-22.071 22.071-0.121 0-0.243-0.001-0.364-0.003zM610.966 648.869c-12.041-0.194-21.727-10-21.727-22.068 0-0.121 0.001-0.243 0.003-0.364v-405.361c-0.001-0.093-0.002-0.202-0.002-0.312 0-12.19 9.882-22.071 22.071-22.071s22.071 9.882 22.071 22.071c0 0.11-0.001 0.219-0.002 0.329v405.363c0.002 0.103 0.003 0.224 0.003 0.345 0 12.19-9.882 22.071-22.071 22.071-0.121 0-0.243-0.001-0.364-0.003zM270 373.145c-82.784 0-150.069-68.549-150.069-152.069-0.001-0.093-0.002-0.202-0.002-0.312 0-12.19 9.882-22.071 22.071-22.071s22.071 9.882 22.071 22.071c0 0.11-0.001 0.219-0.002 0.329 0 59.99 47.403 107.914 105.931 107.914 0.093-0.001 0.202-0.002 0.312-0.002 12.19 0 22.071 9.882 22.071 22.071s-9.882 22.071-22.071 22.071c-0.11 0-0.219-0.001-0.329-0.002zM824.621 373.145c-82.784 0-150.069-68.549-150.069-152.069-0.001-0.093-0.002-0.202-0.002-0.312 0-12.19 9.882-22.071 22.071-22.071s22.071 9.882 22.071 22.071c0 0.11-0.001 0.219-0.002 0.329 0 59.99 47.403 107.914 105.931 107.914 0.093-0.001 0.202-0.002 0.312-0.002 12.19 0 22.071 9.882 22.071 22.071s-9.882 22.071-22.071 22.071c-0.11 0-0.219-0.001-0.329-0.002z" />
<glyph unicode="&#xe617;" glyph-name="ic-add" d="M512.153 972.991c-282.509 0-511.962-229.517-511.962-512.026s229.453-512.026 511.962-512.026c282.509 0 512.026 229.517 512.026 512.026s-229.517 512.026-512.026 512.026zM512.153 928.845c258.678 0 467.943-209.201 467.943-467.879s-209.265-467.879-467.943-467.879c-258.678 0-467.879 209.201-467.879 467.879s209.201 467.879 467.879 467.879zM511.834 750.535c-12.023-0.201-21.693-9.995-21.693-22.047 0-0.121 0.001-0.243 0.003-0.363v-534.655c-0.005-0.183-0.009-0.399-0.009-0.615 0-12.178 9.872-22.050 22.050-22.050s22.050 9.872 22.050 22.050c0 0.216-0.003 0.432-0.009 0.646l0.001 534.641c0.002 0.103 0.003 0.224 0.003 0.345 0 12.178-9.872 22.050-22.050 22.050-0.121 0-0.242-0.001-0.363-0.003zM244.657 483.039c0 0 0 0 0 0-12.191 0-22.073-9.883-22.073-22.073s9.883-22.073 22.073-22.073c0 0 0 0 0 0h534.673c12.191 0 22.073 9.883 22.073 22.073s-9.883 22.073-22.073 22.073h-534.673z" />
<glyph unicode="&#xe618;" glyph-name="ic-up" horiz-adv-x="2182" d="M0.017-33.576c0 0 88.537 104.155 208.030 244.772 329.964 292.020 837.632 741.239 837.632 741.239l1114.191-986.012h-2159.852z" />
<glyph unicode="&#xe619;" glyph-name="ic-certificate" horiz-adv-x="859" d="M20.645 956.284c-11.402-0.001-20.644-9.244-20.645-20.645v-867.097c0.001-11.402 9.244-20.644 20.645-20.645h371.613c0.087-0.001 0.189-0.002 0.292-0.002 11.403 0 20.647 9.244 20.647 20.647s-9.244 20.647-20.647 20.647c-0.103 0-0.205-0.001-0.307-0.002h-350.952v825.806h424.968l194.387-194.387v-32.71c-0.001-0.087-0.002-0.189-0.002-0.292 0-11.403 9.244-20.647 20.647-20.647s20.647 9.244 20.647 20.647c0 0.103-0.001 0.205-0.002 0.307v41.275c-0.005 5.685-2.322 10.847-6.064 14.58l-206.452 206.452c-3.718 3.733-8.877 6.054-14.579 6.065h-454.196zM474.516 956.606c-11.264-0.181-20.325-9.355-20.325-20.645 0-0.114 0.001-0.227 0.003-0.34v-206.435c0.001-11.402 9.244-20.644 20.645-20.645h206.452c0.087-0.001 0.189-0.002 0.292-0.002 11.403 0 20.647 9.244 20.647 20.647s-9.244 20.647-20.647 20.647c-0.103 0-0.205-0.001-0.307-0.002h-185.791v185.806c0.002 0.096 0.003 0.209 0.003 0.323 0 11.403-9.244 20.647-20.647 20.647-0.114 0-0.227-0.001-0.34-0.003zM495.484 254.348v-268.387c0-0.004 0-0.009 0-0.014 0-11.403 9.244-20.647 20.647-20.647 5.046 0 9.669 1.81 13.256 4.817l110.613 92.167 110.645-92.194c3.554-2.98 8.178-4.79 13.224-4.79 11.403 0 20.647 9.244 20.647 20.647 0 0.005 0 0.010 0 0.015v268.386h-41.29v-224.258l-90 74.968c-3.555 2.981-8.179 4.792-13.226 4.792s-9.671-1.811-13.258-4.818l-89.968-74.942v224.258h-41.29zM640 460.8c-45.359 0-82.581-37.222-82.581-82.581 0-45.387 37.239-82.581 82.581-82.581s82.581 37.194 82.581 82.581c-0.005 5.718-2.348 10.905-6.127 14.643-7.78 37.471-36.795 67.937-76.453 67.937zM640 419.51c23.018 0 41.29-18.272 41.29-41.29 0-23.073-18.256-41.29-41.29-41.29s-41.29 18.217-41.29 41.29c0 23.018 18.272 41.29 41.29 41.29zM640 584.671c-38.614 0-69.79-23.397-87.419-55.032-36.204 0.554-72.029-14.816-91.355-48.194-0.010 0-0.021 0-0.033 0s-0.023 0-0.035 0c-19.278-33.467-14.563-72.126 3.937-103.161-18.542-31.106-23.196-69.835-3.871-103.29 19.312-33.443 55.118-48.789 91.29-48.258 17.652-31.595 48.875-54.968 87.485-54.968 38.638 0 69.849 23.35 87.484 54.968 36.18-0.506 72.024 14.782 91.355 48.258 19.311 33.43 14.618 72.166-3.935 103.226 18.551 31.056 23.223 69.746 3.935 103.226-0.010 0-0.021 0-0.033 0s-0.023 0-0.035 0c-19.327 33.384-55.123 48.741-91.287 48.258-17.635 31.618-48.846 54.968-87.484 54.968zM640 543.381c26.447 0 48.633-16.448 57.613-39.548 3.073-7.787 10.533-13.197 19.256-13.197 1.082 0 2.145 0.083 3.182 0.244 24.368 3.731 49.736-7.246 62.981-30.079 13.213-22.935 10.042-50.339-5.484-69.677-2.837-3.506-4.554-8.020-4.554-12.935s1.717-9.429 4.585-12.974c15.459-19.222 18.629-46.764 5.453-69.574-13.248-22.942-38.508-33.821-63.097-30.065-0.922 0.146-1.984 0.229-3.066 0.229-8.723 0-16.183-5.41-19.207-13.057-9.029-23.24-31.214-39.688-57.662-39.688-26.396 0-48.523 16.476-57.548 39.613-3.1 7.732-10.532 13.094-19.216 13.094-1.142 0-2.263-0.093-3.355-0.271-24.355-3.79-49.664 7.202-62.913 30.145-13.188 22.831-10.044 50.236 5.484 69.677 2.821 3.501 4.528 8.003 4.528 12.903s-1.707 9.402-4.559 12.943c-15.441 19.238-18.662 46.709-5.453 69.638 13.245 22.875 38.502 33.81 63.032 30 0.958-0.158 2.063-0.248 3.188-0.248 8.73 0 16.195 5.418 19.215 13.075 9.044 23.342 31.15 39.753 57.597 39.753z" />
<glyph unicode="&#xe61a;" glyph-name="ic-checklist" d="M21.333 972.8c-11.782-0.001-21.332-9.552-21.333-21.333v-981.333c0.001-11.782 9.552-21.332 21.333-21.333h981.333c11.782 0.001 21.332 9.552 21.333 21.333v981.333c-0.001 11.782-9.552 21.332-21.333 21.333h-981.333zM42.667 930.133h938.667v-938.667h-938.667v938.667zM447.6 802.333c-5.568-0.086-10.859-2.547-14.662-6.462l-198.272-198.272-70.267 70.267c-3.92 4.332-9.563 7.041-15.839 7.041-11.783 0-21.335-9.552-21.335-21.335 0-6.276 2.71-11.919 7.023-15.823l85.352-85.35c3.859-3.849 9.185-6.229 15.067-6.229s11.208 2.38 15.067 6.23l213.333 213.333c3.973 3.879 6.437 9.288 6.437 15.272 0 11.783-9.552 21.335-21.335 21.335-0.2 0-0.399-0.003-0.597-0.008zM447.6 418.333c-5.568-0.086-10.859-2.547-14.662-6.462l-198.272-198.272-70.267 70.267c-3.92 4.332-9.563 7.041-15.839 7.041-11.783 0-21.335-9.552-21.335-21.335 0-6.276 2.71-11.919 7.023-15.823l85.352-85.35c3.859-3.849 9.185-6.229 15.067-6.229s11.208 2.38 15.067 6.23l213.333 213.333c3.973 3.879 6.437 9.288 6.437 15.272 0 11.783-9.552 21.335-21.335 21.335-0.2 0-0.399-0.003-0.597-0.008zM533.333 652.8c-0.090 0.001-0.196 0.002-0.302 0.002-11.783 0-21.335-9.552-21.335-21.335s9.552-21.335 21.335-21.335c0.106 0 0.212 0.001 0.318 0.002h341.317c0.090-0.001 0.196-0.002 0.302-0.002 11.783 0 21.335 9.552 21.335 21.335s-9.552 21.335-21.335 21.335c-0.106 0-0.212-0.001-0.318-0.002h-341.317zM533.333 277.333c-0.090 0.001-0.196 0.002-0.302 0.002-11.783 0-21.335-9.552-21.335-21.335s9.552-21.335 21.335-21.335c0.106 0 0.212 0.001 0.318 0.002h341.317c0.090-0.001 0.196-0.002 0.302-0.002 11.783 0 21.335 9.552 21.335 21.335s-9.552 21.335-21.335 21.335c-0.106 0-0.212-0.001-0.318-0.002h-341.317z" />
<glyph unicode="&#xe61b;" glyph-name="ic-checklist-item" d="M1000.091 984.709c-6.861-0.15-13.256-3.583-17.417-8.86l-565.583-701.413-214.455 214.455c-4.242 4.413-10.195 7.155-16.789 7.155-12.854 0-23.275-10.421-23.275-23.275 0-6.593 2.742-12.547 7.147-16.782l232.735-232.735c4.212-4.21 10.029-6.813 16.454-6.813 7.286 0 13.79 3.348 18.058 8.589l581.852 721.497c3.368 4.009 5.413 9.227 5.413 14.923 0 12.854-10.421 23.275-23.275 23.275-0.304 0-0.608-0.006-0.909-0.017zM23.273 856.436c-12.853-0.001-23.271-10.42-23.273-23.273v-837.818c0.001-12.853 10.42-23.271 23.273-23.273h837.818c12.853 0.001 23.271 10.42 23.273 23.273v535.273c0.001 0.098 0.002 0.213 0.002 0.329 0 12.854-10.421 23.275-23.275 23.275s-23.275-10.421-23.275-23.275c0-0.116 0.001-0.231 0.003-0.347v-511.983h-791.273v791.273h558.545c0.098-0.001 0.213-0.002 0.329-0.002 12.854 0 23.275 10.421 23.275 23.275s-10.421 23.275-23.275 23.275c-0.116 0-0.231-0.001-0.347-0.003h-581.801z" />
<glyph unicode="&#xe61c;" glyph-name="ic-clock" horiz-adv-x="1077" d="M535.333 853.504c-245.958 0-445.846-198.292-445.846-442.615s199.888-442.667 445.846-442.667c245.915 0 445.795 198.34 445.795 442.667-0.001 1.23-0.131 2.519-0.38 3.767 0.352-2.147 0.202-0.923-0.055 0.262-2.143 242.356-200.789 438.587-445.36 438.587zM535.333 814.12c224.79 0 406.41-180.346 406.41-403.231s-181.62-403.282-406.41-403.282c-224.837 0-406.462 180.395-406.462 403.282s181.624 403.231 406.462 403.231zM295.18 81.35c-5.186-0.063-10.067-2.308-13.587-5.894l-74.106-73.542c-4.004-3.619-6.509-8.832-6.509-14.629 0-10.877 8.817-19.694 19.694-19.694 5.734 0 10.895 2.45 14.495 6.361l74.167 73.552c3.704 3.585 6.004 8.603 6.004 14.157 0 10.877-8.817 19.694-19.694 19.694-0.163 0-0.325-0.002-0.487-0.006zM774.769 81.453c-10.831-0.060-19.588-8.855-19.588-19.694 0-5.552 2.297-10.567 5.993-14.147l74.262-73.646c3.585-3.7 8.6-5.997 14.151-5.997 10.877 0 19.694 8.817 19.694 19.694 0 5.602-2.339 10.658-6.094 14.245l-74.264 73.648c-3.576 3.641-8.552 5.898-14.054 5.898-0.035 0-0.070 0-0.105 0zM557.436 675.709c-10.744-0.173-19.386-8.923-19.386-19.692 0-0.090 0.001-0.18 0.002-0.271v-247.422h-159.744c-0.083 0.001-0.181 0.002-0.278 0.002-10.877 0-19.694-8.817-19.694-19.694s8.817-19.694 19.694-19.694c0.098 0 0.196 0.001 0.293 0.002h179.421c10.875 0.001 19.691 8.817 19.692 19.692v267.128c0.001 0.076 0.002 0.167 0.002 0.257 0 10.877-8.817 19.694-19.694 19.694-0.108 0-0.216-0.001-0.324-0.003zM210.103 972.017c-49.324 0-98.605-19.148-137.179-57.436-77.149-76.577-77.149-196.244 0-272.821 3.585-3.701 8.6-5.997 14.151-5.997 10.877 0 19.694 8.817 19.694 19.694 0 5.602-2.339 10.659-6.094 14.245-62.984 62.516-62.984 154.421-0.008 216.93s155.946 62.509 218.923 0c3.585-3.7 8.6-5.997 14.151-5.997 10.877 0 19.694 8.817 19.694 19.694 0 5.602-2.339 10.658-6.094 14.245-38.582 38.296-87.914 57.443-137.238 57.443zM860.513 972.017c-49.324 0-98.656-19.148-137.231-57.436-3.763-3.593-6.102-8.649-6.102-14.252 0-10.877 8.817-19.694 19.694-19.694 5.551 0 10.566 2.297 14.146 5.992 62.982 62.514 156.003 62.514 218.979 0.005s62.977-154.414 0-216.923c-3.763-3.593-6.102-8.649-6.102-14.252 0-10.877 8.817-19.694 19.694-19.694 5.551 0 10.566 2.297 14.146 5.992 77.154 76.582 77.154 196.249 0.005 272.826-38.575 38.288-87.907 57.436-137.231 57.436z" />
<glyph unicode="&#xe61d;" glyph-name="ic-cursor" horiz-adv-x="195" d="M24.381 972.8h146.286v-1024h-146.286v1024z" />
<glyph unicode="&#xe61e;" glyph-name="ic-error" d="M511.586 972.524c-282.345-4.927-516.246-237.875-511.31-520.69 4.873-281.933 229.791-507.824 512.138-502.897 282.387 4.927 516.199 237.839 511.31 520.69 0 1.136-0.152 2.594-0.438 4.004-6.878 279.857-230.676 503.797-511.7 498.893zM512.414 928.386c258.501 4.511 462.696-200.603 467.172-459.517 4.461-258.088-209.448-471.282-468-475.793-258.503-4.511-462.696 200.511-467.172 459.517-4.503 258.035 209.495 471.282 468 475.793zM511.724 723.559c-9.632-0.156-17.381-8-17.381-17.655 0-0.073 0-0.146 0.001-0.218v-311.644c-0.001-0.074-0.002-0.162-0.002-0.25 0-9.752 7.905-17.657 17.657-17.657s17.657 7.905 17.657 17.657c0 0.088-0.001 0.175-0.002 0.263v311.642c0.001 0.062 0.001 0.134 0.001 0.207 0 9.752-7.905 17.657-17.657 17.657-0.097 0-0.193-0.001-0.29-0.002zM512 278.11c-21.841 0-39.931-18.090-39.931-39.931s18.090-39.931 39.931-39.931c21.841 0 39.931 18.090 39.931 39.931 0 4.908-2.005 9.35-5.24 12.55-5.711 15.116-17.719 27.381-34.691 27.381zM512 242.8c2.735 0 4.621-1.885 4.621-4.621s-1.885-4.621-4.621-4.621c-2.735 0-4.621 1.885-4.621 4.621s1.885 4.621 4.621 4.621z" />
<glyph unicode="&#xe61f;" glyph-name="ic-filter" horiz-adv-x="967" d="M56.889 943.356c-19.636-0.004-35.552-15.923-35.552-35.559 0-8.043 2.67-15.462 7.172-21.419l334.157-445.466v-443.333c0 0 0-0.001 0-0.002 0-19.639 15.92-35.559 35.559-35.559 7.372 0 14.221 2.244 19.9 6.085l170.541 113.698c9.57 6.472 15.778 17.286 15.778 29.549 0 0.002 0 0.005 0 0.007v329.555l334.222 445.556c4.437 5.868 7.108 13.287 7.108 21.33 0 19.636-15.916 35.555-35.552 35.559h-853.334zM128 872.244h711.111l-298.667-398.222c-4.439-5.868-7.111-13.289-7.111-21.333v-322.222l-99.556-66.333v388.556c0 8.044-2.672 15.465-7.176 21.423l-298.602 398.133z" />
<glyph unicode="&#xe620;" glyph-name="ic-info" d="M512 973.8c-283.090 0-513-229.955-513-513s229.91-513 513-513c283.005 0 513 229.95 513 513 0 0.022 0 0.047 0 0.073 0 3.256-0.669 6.356-1.876 9.17 0.058-0.138 0.058-0.121 0.058-0.105s0 0.033 0 0.049c-5.204 278.563-231.429 503.813-511.182 503.813zM512 927.255c257.845 0 466.455-208.566 466.455-466.455s-208.61-466.455-466.455-466.455c-257.938 0-466.455 208.561-466.455 466.455s208.517 466.455 466.455 466.455zM378.455 172.436c-0.098 0.001-0.213 0.002-0.329 0.002-12.854 0-23.275-10.421-23.275-23.275s10.421-23.275 23.275-23.275c0.116 0 0.231 0.001 0.347 0.003h267.073c0.098-0.001 0.213-0.002 0.329-0.002 12.854 0 23.275 10.421 23.275 23.275s-10.421 23.275-23.275 23.275c-0.116 0-0.231-0.001-0.347-0.003h-267.073zM420.636 573.073c-12.353-0.644-22.125-10.817-22.125-23.273 0-12.87 10.433-23.303 23.303-23.303 0.417 0 0.832 0.011 1.243 0.033l65.67-0.002v-355.091c-0.001-0.098-0.002-0.213-0.002-0.329 0-12.854 10.421-23.275 23.275-23.275s23.275 10.421 23.275 23.275c0 0.116-0.001 0.231-0.003 0.347v378.346c-0.001 12.853-10.42 23.271-23.273 23.273h-89c-0.353 0.019-0.766 0.030-1.182 0.030s-0.829-0.011-1.239-0.032zM489.727 773.436c-1.43-0.001-3.144-0.201-4.792-0.575 1.726 0.383-0.285 0.031-2.19-0.56 0.446 0.479-3.136-0.953-6.182-3.096 2.81 2.127-0.31 0.111-2.829-2.49-16.34-6.985-29.552-20.191-29.552-38.824 0-24.823 20.722-45.455 45.545-45.455 24.825 0 45.545 20.519 45.545 45.455 0 18.694-13.153 31.942-29.455 38.909-4.090 4.036-9.788 6.585-16.081 6.636z" />
<glyph unicode="&#xe621;" glyph-name="ic-maintenance" d="M793.214 967.871c-37.121-6.905-72.52-24.686-101.143-53.357-52.596-52.552-64.116-127.513-43.357-194.071l-396.357-396.429c-66.557 20.801-141.551 9.306-194.143-43.286-57.22-57.317-71.083-141.874-41.214-212.357 3.583-8.225 11.641-13.871 21.018-13.871 6.293 0 11.992 2.543 16.126 6.657l74.999 74.928h64.5v-57.929l-77.857-74.929c-4.303-4.162-6.974-9.988-6.974-16.438 0-9.416 5.693-17.503 13.826-21.005 70.524-29.763 153.748-15.838 210.863 41.229 52.773 52.729 62.773 127.851 41.786 194.214l396.357 396.357c66.56-20.833 141.454-9.332 194.071 43.286 56.926 56.878 71.045 138.917 41.286 209.143-3.571 8.254-11.644 13.924-21.041 13.924-6.461 0-12.295-2.68-16.453-6.989l-74.935-77.793h-57.929v64.5l75.071 75c4.131 4.136 6.685 9.846 6.685 16.154 0 9.415-5.692 17.501-13.822 21.004-35.421 14.96-74.242 18.961-111.363 12.057zM801.786 923.014c14.927 2.758 29.666-2.992 44.714-4.857l-48.857-48.857c-4.133-4.117-6.703-9.829-6.714-16.141v-96.859c0.001-12.623 10.234-22.856 22.857-22.857h90.5c0.011 0 0.024 0 0.037 0 6.463 0 12.299 2.682 16.456 6.993l48.792 50.721c4.929-42.114-2.791-84.605-36.143-117.929-44.058-44.058-108.444-54.357-162.214-31.571-2.635 1.148-5.704 1.816-8.929 1.816-6.301 0-12.007-2.55-16.142-6.674l-410-410.071c-4.196-4.146-6.795-9.901-6.795-16.263 0-3.206 0.66-6.259 1.852-9.028 22.822-53.929 13.833-118.284-29.985-162.066-33.357-33.329-76.813-41.104-119.5-36.143l50.643 48.786c4.305 4.146 6.99 9.973 7 16.427v90.502c-0.001 12.623-10.234 22.856-22.857 22.857h-96.857c-0.009 0-0.020 0-0.031 0-6.286 0-11.98-2.537-16.113-6.644l-48.785-48.856c-5.413 43.539 2.308 88.436 35.857 122.071 44.001 44.001 108.436 54.324 162.214 31.571 2.635-1.148 5.704-1.816 8.929-1.816 6.301 0 12.007 2.55 16.142 6.674l410.071 410.142c4.124 4.135 6.673 9.84 6.673 16.142 0 3.225-0.668 6.295-1.873 9.077-22.656 53.626-12.367 118.036 31.629 161.995 0.011 0 0.024 0 0.037 0s0.026 0 0.039 0c21.978 22.017 49.025 35.623 77.355 40.857zM232.357 967.657c-36.389 6.927-74.446 3.065-109.571-11.786-8.308-3.547-14.026-11.648-14.026-21.084 0-6.475 2.692-12.321 7.018-16.481l77.865-74.936v-64.214h-64.214l-74.929 77.857c-4.164 4.316-9.999 6.996-16.459 6.996-9.397 0-17.47-5.671-20.984-13.777-29.873-70.507-15.909-153.819 41.157-210.934 52.684-52.684 127.75-63.442 194.214-42.571l152.929-152.5 32.286 32.357-159.857 159.357c-4.137 4.141-9.855 6.702-16.171 6.702-3.187 0-6.222-0.652-8.978-1.83-53.78-22.722-118.146-13.148-162.065 30.771-33.321 33.349-41.040 76.841-36.071 119.5l48.714-50.643c4.164-4.318 10.001-7 16.463-7 0.013 0 0.026 0 0.039 0h96.784c12.623 0.001 22.856 10.234 22.857 22.857v96.857c-0.005 6.439-2.686 12.268-6.993 16.422l-50.721 48.792c42.104 4.906 84.571-2.757 117.929-36.143 0-0.011 0-0.023 0-0.036s0-0.025 0-0.038c44.044-44.005 54.325-108.359 31.571-162.141-1.148-2.635-1.816-5.704-1.816-8.93 0-6.302 2.55-12.007 6.674-16.143l159.785-159.785 32.357 32.357-152.929 152.929c20.799 66.551 9.273 141.485-43.357 194.071-28.444 28.449-63.132 46.22-99.5 53.143zM618.714 476.943l-32.357-32.286 159.786-159.857c4.135-4.124 9.84-6.673 16.142-6.673 3.225 0 6.295 0.668 9.077 1.873 53.622 22.692 118.063 12.338 162.066-31.629 33.549-33.635 41.27-78.532 35.857-122.071l-48.786 48.857c-4.131 4.106-9.825 6.643-16.112 6.643-0.036 0-0.072 0-0.108 0h-90.423c-12.623-0.001-22.856-10.234-22.857-22.857v-90.5c0-0.009 0-0.020 0-0.031 0-6.286 2.537-11.98 6.644-16.113l48.856-48.856c-43.589-5.402-88.526 2.284-122.071 35.857-44.039 44.002-54.324 108.436-31.571 162.214 1.148 2.635 1.816 5.704 1.816 8.929 0 6.301-2.55 12.007-6.674 16.142l-159.857 159.928-32.357-32.357 153.071-153.071c-20.804-66.56-9.351-141.479 43.286-194.071 57.255-57.264 141.815-71.032 212.286-41.286 8.279 3.56 13.971 11.645 13.971 21.061 0 6.307-2.554 12.018-6.685 16.154l-75 74.928v58.214h58.143l75-74.929c4.133-4.113 9.832-6.656 16.125-6.656 9.377 0 17.435 5.646 20.961 13.723 29.926 70.631 16.063 155.188-41.157 212.504-0.011 0-0.024 0-0.037 0s-0.026 0-0.039 0c-52.587 52.545-127.508 64.083-194.069 43.286l-152.929 152.929z" />
<glyph unicode="&#xe622;" glyph-name="ic-question" d="M512 972.787c-282.489 0-511.987-229.498-511.987-511.987s229.498-511.987 511.987-511.987c282.489 0 511.987 229.498 511.987 511.987 0 0.022 0 0.047 0 0.072 0 3.25-0.668 6.344-1.872 9.151 0.058-0.138 0.058-0.121 0.058-0.105s0 0.033 0 0.049c-5.192 278.010-230.931 502.819-510.173 502.819zM512 926.335c257.382 0 465.535-208.151 465.535-465.535s-208.151-465.535-465.535-465.535c-257.382 0-465.535 208.151-465.535 465.535s208.151 465.535 465.535 465.535zM512 728.453c-86.187 0-156.508-70.459-156.508-156.599-0.001-0.098-0.002-0.212-0.002-0.329 0-12.829 10.4-23.23 23.23-23.23s23.23 10.4 23.23 23.23c0 0.116-0.001 0.23-0.003 0.347 0 61.008 48.989 110.128 110.055 110.128 61.015 0 110.055-49.13 110.055-110.147 0-61.119-49.021-110.055-110.055-110.055-12.828-0.001-23.225-10.399-23.227-23.227v-133.283c-0.001-0.098-0.002-0.212-0.002-0.329 0-12.829 10.4-23.23 23.23-23.23s23.23 10.4 23.23 23.23c0 0.116-0.001 0.23-0.003 0.347v114.756c74.733 11.7 133.282 73.804 133.282 151.791 0 86.149-70.359 156.599-156.508 156.599zM512 239.601c-24.83 0-45.455-20.534-45.455-45.366s20.624-45.455 45.455-45.455c24.83 0 45.455 20.624 45.455 45.455-0.014 6.395-2.648 12.221-6.893 16.42-7.061 16.055-20.098 28.945-38.562 28.945zM512 195.235c0.303 0 0.998-0.694 0.998-0.998 0-0.289-0.675-0.939-0.998-0.998l-0.998 0.998c0 0.303 0.694 0.998 0.998 0.998z" />
<glyph unicode="&#xe623;" glyph-name="ic-radio-btn" horiz-adv-x="1018" d="M512.007 969.791c-280.846 0-508.991-228.145-508.991-508.991s228.145-508.991 508.991-508.991c280.846 0 508.991 228.145 508.991 508.991s-228.145 508.991-508.991 508.991zM512.007 925.531c256.926 0 464.731-207.805 464.731-464.731s-207.805-464.731-464.731-464.731c-256.926 0-464.731 207.805-464.731 464.731s207.805 464.731 464.731 464.731z" />
<glyph unicode="&#xe624;" glyph-name="ic-radio-btn-sel" horiz-adv-x="1069" d="M534.261 972.8c-282.506 0-512-229.494-512-512s229.494-512 512-512c282.506 0 512 229.494 512 512s-229.494 512-512 512zM534.261 928.278c258.445 0 467.478-209.033 467.478-467.478s-209.033-467.478-467.478-467.478c-258.445 0-467.478 209.033-467.478 467.478s209.033 467.478 467.478 467.478zM756.87 460.8c0-122.943-99.665-222.609-222.609-222.609s-222.609 99.665-222.609 222.609c0 122.943 99.665 222.609 222.609 222.609s222.609-99.665 222.609-222.609z" />
<glyph unicode="&#xe625;" glyph-name="ic-shield-green" horiz-adv-x="851" d="M663.813 691.614c-0.034 0-0.073 0-0.113 0-3.817 0-7.281-1.503-9.836-3.95l-314.745-293.581-98.381 98.381c-2.592 2.698-6.23 4.373-10.26 4.373-7.855 0-14.223-6.368-14.223-14.223 0-4.030 1.676-7.668 4.369-10.255l108.106-108.051c2.577-2.592 6.146-4.199 10.090-4.199 3.747 0 7.154 1.449 9.695 3.817l324.797 302.912c2.884 2.612 4.688 6.372 4.688 10.553 0 7.842-6.348 14.203-14.185 14.223zM14.257 972.757c-7.853-0.001-14.22-6.368-14.221-14.221v-314.307c0-291.088 161.077-558.218 418.575-693.775 1.924-1.036 4.21-1.644 6.638-1.644s4.714 0.609 6.714 1.682c257.419 135.518 418.778 402.641 418.778 693.737v314.307c-0.001 7.853-6.368 14.22-14.221 14.221h-822.265zM28.477 944.315h793.822v-300.086c0-277.967-152.915-532.665-397.077-664.444-244.128 131.783-396.745 386.485-396.745 664.444v300.086z" />
<glyph unicode="&#xe626;" glyph-name="ic-shield-yellow" horiz-adv-x="859" d="M14.225 972.606c-7.852-0.001-14.216-6.365-14.217-14.217v-314.166c0-291.066 162.823-558.156 422.794-693.642 1.903-1.008 4.159-1.6 6.553-1.6s4.65 0.592 6.631 1.637c259.89 135.446 422.995 402.53 422.995 693.604v314.166c-0.001 7.852-6.365 14.216-14.217 14.217h-830.537zM28.442 944.172h802.103v-299.949c0-277.889-154.474-532.676-401.191-664.43-246.708 131.751-400.913 386.531-400.913 664.43v299.949zM422.912 753.296c-7.781-0.094-14.052-6.423-14.052-14.218 0-0.078 0.001-0.156 0.002-0.234v-264.95c-0.001-0.060-0.001-0.131-0.001-0.201 0-7.853 6.365-14.219 14.219-14.219s14.219 6.365 14.219 14.219c0 0.071-0.001 0.141-0.002 0.212v264.951c0.001 0.066 0.002 0.144 0.002 0.222 0 7.853-6.365 14.219-14.219 14.219-0.059 0-0.117 0-0.176-0.001zM423.079 394.534c-3.745-0.029-7.232-1.594-9.775-4.111-12.005-4.495-21.769-14.022-21.769-27.433 0-3.98 1.637-7.58 4.274-10.161 4.607-11.799 14.010-21.383 27.27-21.383 3.783 0.023 7.282 1.588 9.831 4.111 11.99 4.502 21.769 14.032 21.769 27.433-0.008 3.914-1.621 7.48-4.219 10.051-4.575 11.859-14.076 21.493-27.381 21.493zM423.079 366.101c2.14 0 3.165-0.969 3.165-3.11s-1.025-3.11-3.165-3.11c-2.14 0-3.11 0.969-3.11 3.11s0.969 3.11 3.11 3.11z" />
<glyph unicode="&#xe627;" glyph-name="ic-shield-red" horiz-adv-x="851" d="M14.222 972.8c-7.854-0.001-14.221-6.368-14.222-14.222v-314.611c0-290.842 161.379-557.932 418.611-693.5 1.931-1.044 4.226-1.658 6.665-1.658 2.396 0 4.654 0.592 6.634 1.639 257.451 135.246 418.867 402.398 418.867 693.52v314.611c-0.001 7.854-6.368 14.221-14.222 14.222h-822.333zM28.444 944.356h793.889v-300.389c0-277.998-152.926-532.769-397.111-664.278-243.882 131.794-396.778 386.591-396.778 664.278v300.389zM230.556 778.078c-7.854-0.003-14.219-6.37-14.219-14.224 0-3.982 1.636-7.581 4.272-10.163l389.447-389.391c2.593-2.697 6.231-4.373 10.26-4.373 7.856 0 14.224 6.368 14.224 14.224 0 4.030-1.676 7.668-4.368 10.256l-389.449 389.393c-2.584 2.64-6.184 4.277-10.167 4.278zM619.833 778.078c-3.717-0.053-7.239-1.681-9.775-4.275l-389.447-389.392c-2.697-2.593-4.373-6.231-4.373-10.26 0-7.856 6.368-14.224 14.224-14.224 4.030 0 7.668 1.676 10.256 4.368l389.449 389.394c2.642 2.585 4.28 6.186 4.28 10.171 0 7.856-6.368 14.224-14.224 14.224-0.137 0-0.274-0.002-0.41-0.006z" />
<glyph unicode="&#xe628;" glyph-name="ic-critical" d="M518.296 953.541c-270.568 0-490.519-216.724-490.519-483.852 0-267.142 219.951-483.852 490.519-483.852 270.554 0 490.593 216.71 490.593 483.852v18.963h-1.926c-10.341 258.145-224.69 464.889-488.667 464.889zM518.296 915.615c250.35 0 452.667-199.592 452.667-445.926 0-246.349-202.316-445.926-452.667-445.926-250.365 0-452.593 199.577-452.593 445.926 0 246.335 202.228 445.926 452.593 445.926zM737.751 297.674l-181.552 180.145 180.836 180.843c8.918 8.914 8.888 23.34-0.061 32.208-8.949 8.883-23.432 8.853-32.335-0.061l-180.851-180.843-181.552 180.129c-8.949 8.883-23.416 8.853-32.335-0.061s-8.888-23.34 0.061-32.208l181.552-180.145-180.836-180.828c-8.918-8.914-8.888-23.355 0.061-32.223 4.467-4.434 10.29-6.636 16.129-6.636 5.869 0 11.739 2.232 16.205 6.697l180.836 180.858 181.568-180.145c4.467-4.434 10.306-6.636 16.129-6.636 5.869 0 11.739 2.232 16.205 6.697 8.918 8.914 8.888 23.34-0.061 32.208z" />
<glyph unicode="&#xe629;" glyph-name="ic-pass" horiz-adv-x="1063" d="M538.231 972.492c-280.975 0-509.385-225.059-509.385-502.462 0-277.416 228.411-502.462 509.385-502.462 280.96 0 509.462 225.045 509.462 502.462v19.692h-2c-10.738 268.074-233.332 482.769-507.462 482.769zM538.231 933.108c259.979 0 470.077-207.268 470.077-463.077 0-255.824-210.098-463.077-470.077-463.077-259.995 0-470 207.253-470 463.077 0 255.809 210.006 463.077 470 463.077zM807.123 658.973c-4.116 4.1-9.578 6.355-15.404 6.355-5.81 0-11.272-2.255-15.388-6.355l-354.004-352.637-127.078 126.597c-4.116 4.1-9.578 6.355-15.404 6.355-5.81 0-11.272-2.255-15.388-6.355s-6.38-9.541-6.38-15.328c0-5.803 2.264-11.244 6.38-15.344l157.87-157.253 384.796 383.293c4.1 4.1 6.364 9.541 6.364 15.344 0 5.787-2.264 11.228-6.364 15.328z" />
<glyph unicode="&#xe62a;" glyph-name="ic-close" d="M984.615-51.2c-9.977 0-19.955 3.676-27.832 11.553l-945.231 945.231c-15.229 15.229-15.229 40.435 0 55.664s40.435 15.229 55.664 0l945.231-945.231c15.229-15.229 15.229-40.435 0-55.664-7.877-7.877-17.854-11.553-27.832-11.553zM39.385-51.2c-9.977 0-19.955 3.676-27.832 11.553-15.229 15.229-15.229 40.435 0 55.664l945.231 945.231c15.229 15.229 40.435 15.229 55.664 0s15.229-40.435 0-55.664l-945.231-945.231c-7.877-7.877-17.854-11.553-27.832-11.553z" />
<glyph unicode="&#xe62b;" glyph-name="ic-edit" horiz-adv-x="1025" d="M21.667-51.2c-5.634 0-11.267 2.167-15.167 6.5-5.2 5.2-7.367 13-5.634 20.367l65.869 279.942c0.867 3.9 3.033 7.367 5.634 10.4l676.022 676.022c40.735 40.735 112.237 40.735 153.405 0l91.87-91.87c42.035-42.035 42.035-110.937 0-153.405l-676.022-676.022c-3.033-3.033-6.5-4.767-10.4-5.634l-280.376-65.869c-1.733 0-3.467-0.433-5.2-0.433zM107.037 239.576l-56.335-240.074 240.074 56.335 671.689 671.689c25.134 25.567 25.134 66.736 0 91.87l-91.87 91.87c-24.701 24.701-67.602 24.701-91.87 0l-671.689-671.689zM302.043 36.336v0 0zM947.298 659.923c-5.634 0-11.267 2.167-15.167 6.5l-214.507 214.507c-8.667 8.667-8.667 22.101 0 30.768s22.101 8.667 30.768 0l214.507-214.507c8.667-8.667 8.667-22.101 0-30.768-4.333-4.333-9.967-6.5-15.601-6.5zM885.762 597.954c-5.634 0-11.267 2.167-15.167 6.5l-214.074 215.374c-8.234 8.667-8.234 22.101 0 30.768 8.667 8.667 22.101 8.234 30.768 0l214.074-215.374c8.234-8.667 8.234-22.101 0-30.768-4.767-4.333-10.4-6.5-15.601-6.5zM312.877 25.502c-5.634 0-11.267 2.167-15.167 6.5l-214.507 214.507c-8.667 8.667-8.667 22.101 0 30.768s22.101 8.667 30.768 0l214.507-214.507c8.667-8.667 8.667-22.101 0-30.768-4.767-4.333-9.967-6.5-15.601-6.5z" />
<glyph unicode="&#xe62c;" glyph-name="ic-files" horiz-adv-x="838" d="M814.545 134.982h-605.091c-13.033 0-23.273 10.24-23.273 23.273v791.273c0 13.033 10.24 23.273 23.273 23.273h372.364c6.051 0 12.102-2.327 16.291-6.982l232.727-232.727c4.655-4.189 6.982-10.24 6.982-16.291v-558.545c0-13.033-10.24-23.273-23.273-23.273zM232.727 181.527h558.545v525.498l-219.229 219.229h-339.316v-744.727zM721.455 41.891h-605.091c-13.033 0-23.273 10.24-23.273 23.273v791.273c0 13.033 10.24 23.273 23.273 23.273h93.091c13.033 0 23.273-10.24 23.273-23.273s-10.24-23.273-23.273-23.273h-69.818v-744.727h558.545v69.818c0 13.033 10.24 23.273 23.273 23.273s23.273-10.24 23.273-23.273v-93.091c0-13.033-10.24-23.273-23.273-23.273zM628.364-51.2h-605.091c-13.033 0-23.273 10.24-23.273 23.273v791.273c0 13.033 10.24 23.273 23.273 23.273h93.091c13.033 0 23.273-10.24 23.273-23.273s-10.24-23.273-23.273-23.273h-69.818v-744.727h558.545v69.818c0 13.033 10.24 23.273 23.273 23.273s23.273-10.24 23.273-23.273v-93.091c0-13.033-10.24-23.273-23.273-23.273zM814.545 693.527h-232.727c-13.033 0-23.273 10.24-23.273 23.273v232.727c0 13.033 10.24 23.273 23.273 23.273s23.273-10.24 23.273-23.273v-209.455h209.455c13.033 0 23.273-10.24 23.273-23.273s-10.24-23.273-23.273-23.273z" />
<glyph unicode="&#xe62d;" glyph-name="ic-export" d="M235.075-51.2h-85.037c-82.81 0-150.038 67.228-150.038 150.038v723.923c0 82.81 67.228 150.038 150.038 150.038h85.037c12.466 0 22.261-9.795 22.261-22.261s-9.795-22.261-22.261-22.261h-85.037c-58.323 0-105.517-47.193-105.517-105.517v-723.923c0-58.323 47.193-105.517 105.517-105.517h85.037c12.466 0 22.261-9.795 22.261-22.261s-9.795-22.261-22.261-22.261zM1001.739 438.539h-761.767c-12.466 0-22.261 9.795-22.261 22.261s10.24 22.261 22.261 22.261h761.767c12.466 0 22.261-9.795 22.261-22.261s-9.795-22.261-22.261-22.261zM690.087 126.887c-5.788 0-11.576 2.226-15.583 6.678-8.904 8.904-8.904 22.706 0 31.61l296.070 296.070-296.070 296.070c-8.904 8.904-8.904 22.706 0 31.61s22.706 8.904 31.61 0l311.652-311.652c8.904-8.904 8.904-22.706 0-31.61l-311.652-311.652c-4.452-4.897-10.24-7.123-16.028-7.123z" />
<glyph unicode="&#xe62e;" glyph-name="ic-location" d="M512 503.467c-94.293 0-170.667 76.373-170.667 170.667s76.373 170.667 170.667 170.667 170.667-76.373 170.667-170.667-76.373-170.667-170.667-170.667zM512 802.133c-70.4 0-128-57.6-128-128s57.6-128 128-128 128 57.6 128 128-57.6 128-128 128zM512-51.2c-52.48 0-512 2.987-512 106.667 0 48.213 99.413 81.493 295.253 98.133 11.947 0.853 22.187-7.68 23.040-19.627 0.853-11.52-7.68-22.187-19.627-23.040-193.28-16.213-251.307-47.787-256.427-57.6 12.373-19.627 180.053-61.867 469.76-61.867s457.387 42.24 469.76 66.133c-5.12 5.547-63.573 37.12-258.133 53.333-11.947 0.853-20.48 11.093-19.627 23.040 0.853 11.52 11.52 20.053 23.040 19.627 197.12-16.64 296.96-49.493 296.96-98.133 0-103.68-459.52-106.667-512-106.667zM512 33.28c-7.253 0-13.653 3.413-17.92 9.387-11.947 18.347-295.68 450.133-295.68 616.107 0 173.227 140.373 314.027 313.6 314.027s313.6-140.8 313.6-314.027c0-165.973-283.733-597.76-296.107-616.107-3.84-5.973-10.24-9.387-17.493-9.387zM512 930.133c-149.333 0-270.933-121.6-270.933-271.36 0-130.987 208.213-466.773 270.933-565.333 63.147 98.56 270.933 434.347 270.933 565.333 0 149.76-121.6 271.36-270.933 271.36z" />
<glyph unicode="&#xe62f;" glyph-name="ic-confirmation" d="M384.223 161.614c-5.788 0-11.576 2.226-15.583 6.678l-212.814 212.814c-8.904 8.904-8.904 22.706 0 31.61s22.706 8.904 31.61 0l195.45-195.45 601.489 747.075c7.569 9.35 21.816 11.13 31.165 3.562 9.795-7.569 11.13-21.816 3.562-31.165l-617.517-766.664c-4.007-4.897-9.795-8.014-16.028-8.459-0.445 0-0.89 0-1.336 0zM405.593-51.2c-223.499 0-405.593 182.094-405.593 405.593s182.094 405.593 405.593 405.593c63.221 0 123.77-14.247 180.313-42.296 11.13-5.343 15.583-18.699 10.24-29.83s-18.699-15.583-29.83-10.24c-49.864 24.932-104.181 37.398-160.278 37.398-199.457 0.445-361.517-161.614-361.517-360.626s162.059-361.071 361.071-361.071 361.071 162.059 361.071 361.071c0 27.158-3.117 54.317-8.904 80.584-2.671 12.021 4.897 24.042 16.918 26.713s24.042-4.897 26.713-16.918c6.678-29.83 10.24-60.104 10.24-90.379-0.445-223.499-182.539-405.593-406.038-405.593z" />
<glyph unicode="&#xe630;" glyph-name="ic-delete" horiz-adv-x="1005" d="M824.96-51.2h-687.36c-16.64 0-30.080 13.44-30.080 30.080v838.4c0 16.64 13.44 30.080 30.080 30.080h687.36c16.64 0 30.080-13.44 30.080-30.080v-837.76c0-17.28-13.44-30.72-30.080-30.72zM167.68 8.96h627.2v777.6h-627.2v-777.6zM653.44 786.56h-343.68c-16.64 0-30.080 13.44-30.080 30.080v126.080c0 16.64 13.44 30.080 30.080 30.080h343.68c16.64 0 30.080-13.44 30.080-30.080v-125.44c0-16.64-13.44-30.72-30.080-30.72zM339.84 847.36h283.52v65.28h-283.52v-65.28zM975.36 786.56h-945.28c-16.64 0-30.080 14.080-30.080 30.72s13.44 30.080 30.080 30.080h945.28c16.64 0 30.080-13.44 30.080-30.080s-13.44-30.72-30.080-30.72zM309.76 137.6c-16.64 0-30.080 13.44-30.080 30.080v502.4c0 16.64 13.44 30.080 30.080 30.080s30.080-13.44 30.080-30.080v-503.040c0-16-13.44-29.44-30.080-29.44zM481.28 137.6c-16.64 0-30.080 13.44-30.080 30.080v502.4c0 16.64 13.44 30.080 30.080 30.080s30.080-13.44 30.080-30.080v-503.040c0-16-13.44-29.44-30.080-29.44zM653.44 137.6c-16.64 0-30.080 13.44-30.080 30.080v502.4c0 16.64 13.44 30.080 30.080 30.080s30.080-13.44 30.080-30.080v-503.040c0-16-13.44-29.44-30.080-29.44z" />
<glyph unicode="&#xe631;" glyph-name="ic-saveas" d="M1002.667-51.2h-981.333c-11.947 0-21.333 9.387-21.333 21.333v853.333c0 5.973 2.56 11.093 6.827 14.507l128 128c3.413 4.267 8.533 6.827 14.507 6.827h853.333c11.947 0 21.333-9.387 21.333-21.333v-981.333c0-11.947-9.387-21.333-21.333-21.333zM42.667-8.533h938.667v938.667h-822.613l-116.053-116.053v-822.613zM512 145.92c-11.947 0-21.333 9.387-21.333 21.333v586.24c0 11.947 9.387 21.333 21.333 21.333s21.333-9.387 21.333-21.333v-587.093c0-10.24-9.387-20.48-21.333-20.48zM512 145.92c-5.973 0-11.093 1.707-15.36 5.973l-239.787 240.64c-8.533 8.533-8.533 22.187 0 30.72s21.333 8.533 30.72 0l224.427-226.133 225.28 225.28c8.533 8.533 22.187 8.533 29.867 0s8.533-22.187 0-30.72l-239.787-238.933c-4.267-4.267-9.387-6.827-15.36-6.827z" />
<glyph unicode="&#xe632;" glyph-name="ic-bookmark" d="M824.96-43.2c-5.12 0-9.92 1.6-14.080 4.8l-298.88 218.88-298.88-218.88c-8.32-6.080-19.84-6.080-28.48 0-8.32 6.080-11.84 16.96-8.64 26.88l120 359.68-279.040 219.2c-8 6.4-11.2 16.96-8 26.56s12.48 16 22.72 16h337.92l119.68 338.88c3.52 9.6 12.48 16 22.72 16s19.2-6.4 22.72-16l119.68-338.88h337.6c10.24 0 19.2-6.4 22.72-16s0.32-20.48-8-26.56l-278.72-219.2 120-359.68c3.2-9.92-0.32-20.8-8.64-26.88-4.48-3.2-9.28-4.8-14.4-4.8zM101.44 561.92l237.76-186.56c8-6.4 11.2-16.96 8-26.56l-101.76-304 252.16 184.96c8.32 6.080 19.84 6.080 28.48 0l252.48-184.96-101.44 304c-3.2 9.6 0 20.16 8 26.56l237.44 186.56h-285.44c-10.24 0-19.2 6.4-22.72 16l-102.4 290.88-102.72-290.56c-3.52-9.6-12.48-16-22.72-16h-285.12z" />
<glyph unicode="&#xe633;" glyph-name="ic-foresee-feedback" d="M21.333 972.8c-11.782-0.001-21.332-9.552-21.333-21.333v-597.333c0.001-11.782 9.552-21.332 21.333-21.333h149.333v-149.333c0.005-11.78 9.555-21.327 21.335-21.327 5.889 0 11.221 2.386 15.081 6.244l164.333 164.417h204.583c0.090-0.001 0.196-0.002 0.302-0.002 11.783 0 21.335 9.552 21.335 21.335s-9.552 21.335-21.335 21.335c-0.106 0-0.212-0.001-0.318-0.002h-213.401c-5.891-0.001-11.223-2.389-15.083-6.25l-134.167-134.25v119.167c-0.001 11.782-9.552 21.332-21.333 21.333h-149.333v554.667h853.333v-341.333c-0.001-0.090-0.002-0.196-0.002-0.302 0-11.783 9.552-21.335 21.335-21.335s21.335 9.552 21.335 21.335c0 0.106-0.001 0.212-0.002 0.318v362.651c-0.001 11.782-9.552 21.332-21.333 21.333h-896zM895.667 460.8c-5.769-0.095-10.967-2.465-14.75-6.25l-320.083-320c-2.492-2.5-4.368-5.616-5.379-9.099l-42.704-149.484c-0.51-1.739-0.804-3.736-0.804-5.802 0-11.783 9.552-21.335 21.335-21.335 2.066 0 4.063 0.294 5.953 0.841l149.183 42.629c3.634 1.049 6.75 2.925 9.251 5.417l320.083 319.999c3.859 3.861 6.246 9.193 6.246 15.083s-2.387 11.223-6.246 15.083l-106.667 106.667c-3.861 3.863-9.197 6.252-15.090 6.252-0.115 0-0.23-0.001-0.344-0.003zM896 409.3l76.5-76.5-301.083-301-107.167-30.667 30.667 107.167 301.083 301zM825.75 369.217l-30.167-30.167 106.667-106.667 30.167 30.167-106.667 106.667zM575.667 141.050c-11.781-0.002-21.331-9.554-21.331-21.335 0-6.014 2.489-11.447 6.492-15.326l106.672-106.672c3.889-4.045 9.346-6.559 15.39-6.559 11.783 0 21.335 9.552 21.335 21.335 0 6.044-2.513 11.501-6.552 15.383l-106.674 106.673c-3.884 4.011-9.318 6.5-15.333 6.5z" />
<glyph unicode="&#xe634;" glyph-name="ic-alarm" horiz-adv-x="1068" d="M1042.649 81.717h-1017.219c-13.902 0-25.43 11.189-25.43 25.43s11.528 25.43 25.43 25.43c58.999 0 107.147 48.148 107.147 107.147v243.115c0 161.738 99.009 308.895 248.201 370.607 17.632 69.171 81.038 119.354 153.261 119.354 73.24 0 135.629-49.166 152.922-119.354 149.192-61.711 248.201-208.869 248.201-370.607v-243.115c0-58.999 48.148-107.147 107.147-107.147 13.902 0 25.43-11.528 25.43-25.43s-11.189-25.43-25.091-25.43zM141.393 132.577h784.954c-26.109 28.143-42.045 65.78-42.045 107.147v243.115c0 145.462-91.889 277.362-228.535 328.223-8.477 3.052-14.919 10.85-16.275 20.005-8.138 52.556-52.556 90.872-105.791 90.872-52.556 0-97.992-38.993-105.791-90.872-1.356-9.155-7.46-16.615-16.275-20.005-136.646-50.861-228.196-182.76-228.196-328.223v-243.115c0-41.367-15.936-79.004-42.045-107.147zM534.040-51.2c-87.142 0-158.008 70.866-158.008 158.008 0 13.902 11.528 25.43 25.43 25.43s25.43-11.528 25.43-25.43c0-58.999 48.148-107.147 107.147-107.147s107.147 48.148 107.147 107.147c0 13.902 11.528 25.43 25.43 25.43s25.43-11.528 25.43-25.43c0-86.803-70.866-158.008-158.008-158.008z" />
<glyph unicode="&#xe635;" glyph-name="ic-navigation" horiz-adv-x="1122" d="M560.789-51.2c-13.459 0-24.301 10.842-24.301 24.301 0 84.118-37.76 121.878-121.878 121.878h-390.309c-13.459 0-24.301 10.842-24.301 24.301v780.244c0 13.459 10.842 24.675 24.301 24.675h389.935c66.547 0 118.139-31.404 146.179-85.614 28.413 53.836 79.632 85.614 146.179 85.614h97.577c13.459 0 24.301-10.842 24.301-24.301s-10.842-24.301-24.301-24.301h-97.577c-109.915 0-121.878-102.437-121.878-146.179v-623.971c28.413 25.422 69.538 38.507 121.878 38.507h365.634v731.268h-73.276c-13.459 0-24.301 10.842-24.301 24.301s10.842 24.301 24.301 24.301h97.577c14.207 0.374 25.049-10.842 25.049-24.301v-780.244c0-13.459-10.842-24.301-24.301-24.301h-390.309c-84.492 0-121.878-37.76-121.878-121.878 0-13.459-10.842-24.301-24.301-24.301zM48.602 143.954h365.634c52.34 0 93.465-13.085 121.878-38.507v623.597c0 44.115-11.963 146.179-121.878 146.179h-365.634v-731.268zM999.699 509.589c-6.356 0-12.711 2.617-17.198 7.103l-80.38 80.38-80.38-80.38c-7.103-7.103-17.571-8.973-26.544-5.234s-14.954 12.711-14.954 22.432v414.61c0 13.459 10.842 24.301 24.301 24.301h195.154c13.459 0 24.301-10.842 24.301-24.301v-414.61c0-9.72-5.982-18.693-14.954-22.432-2.991-1.495-6.356-1.869-9.346-1.869zM902.122 655.768c6.356 0 12.337-2.243 17.198-7.103l56.079-56.079v331.613h-146.179v-331.239l56.079 56.079c4.486 4.486 10.468 6.729 16.824 6.729z" />
<glyph unicode="&#xe636;" glyph-name="ic-stay-connected" d="M447.829 418.475c-5.461 0-10.923 2.048-15.019 6.144l-121.856 121.515h-33.792c-35.157 0-64.171 28.672-64.171 63.829v299.008c0.341 35.157 29.013 63.829 64.171 63.829h469.333c35.157 0 64.171-28.672 64.171-63.829v-298.325c0-35.157-28.672-63.829-64.171-63.829h-277.163v-106.496c0-8.533-5.12-16.384-13.312-19.797-2.389-1.707-5.12-2.048-8.192-2.048zM277.163 930.133c-11.605 0-21.163-9.557-21.163-21.163v-298.325c0-11.605 9.557-21.163 21.163-21.163h42.667c5.803 0 10.923-2.389 15.019-6.144l91.477-91.477v76.459c0 11.947 9.557 21.163 21.163 21.163h298.667c11.605 0 21.163 9.557 21.163 21.163v298.325c0 11.605-9.557 21.163-21.163 21.163h-468.992zM832.171 247.467c-70.656 0-128 57.344-128 128s57.344 128 128 128 128-57.344 128-128-57.685-128-128-128zM832.171 460.459c-47.104 0-85.333-38.229-85.333-85.333s38.229-85.333 85.333-85.333 85.333 38.229 85.333 85.333c0 47.104-38.571 85.333-85.333 85.333zM1002.837 76.8h-341.333c-11.947 0-21.163 9.557-21.163 21.163 0 105.813 86.016 191.829 191.829 191.829s191.829-86.016 191.829-191.829c0-11.605-9.557-21.163-21.163-21.163zM684.373 119.467h295.595c-10.24 72.363-72.704 128-147.797 128s-137.557-55.979-147.797-128zM191.829 247.467c-70.656 0-128 57.344-128 128s57.344 128 128 128 128-57.344 128-128-57.344-128-128-128zM191.829 460.459c-47.104 0-85.333-38.229-85.333-85.333s38.229-85.333 85.333-85.333 85.333 38.229 85.333 85.333c0 47.104-38.229 85.333-85.333 85.333zM362.496 76.8h-341.333c-11.605 0-21.163 9.557-21.163 21.163 0 105.813 86.016 192.171 191.829 192.171s191.829-86.016 191.829-191.829c0.341-11.947-9.216-21.504-21.163-21.504zM44.032 119.467h295.595c-10.24 72.363-72.704 128-147.797 128s-137.216-55.979-147.797-128zM512 119.467c-70.656 0-128 57.344-128 128s57.344 128 128 128 128-57.344 128-128-57.344-128-128-128zM512 332.459c-47.104 0-85.333-38.229-85.333-85.333s38.229-85.333 85.333-85.333c47.104 0 85.333 38.229 85.333 85.333s-38.229 85.333-85.333 85.333zM682.667-51.2h-341.333c-11.947 0-21.163 9.557-21.163 21.163 0 105.813 86.016 191.829 191.829 191.829s191.829-86.016 191.829-191.829c0-11.605-9.216-21.163-21.163-21.163zM364.203-8.533h295.595c-10.24 72.363-72.704 128-147.797 128s-137.557-55.637-147.797-128zM660.139 674.133h-297.301c-11.947 0-21.504 9.557-21.504 21.504s9.557 21.163 21.163 21.163h297.301c11.947 0 21.163-9.557 21.163-21.163s-9.216-21.504-20.821-21.504zM660.139 759.467h-297.301c-11.947 0-21.504 9.557-21.504 21.504s9.557 21.163 21.163 21.163h297.301c11.947 0 21.163-9.557 21.163-21.163s-9.216-21.504-20.821-21.504zM660.139 844.8h-297.301c-11.947 0-21.504 9.557-21.504 21.504s9.557 21.163 21.163 21.163h297.301c11.947 0 21.163-9.557 21.163-21.163s-9.216-21.504-20.821-21.504z" />
<glyph unicode="&#xe637;" glyph-name="ic-instruct" d="M58.709-51.2c-5.461 0-11.264 2.048-15.36 6.144-6.827 6.485-8.533 16.725-4.779 25.259l103.424 223.232c-91.819 84.992-141.995 196.267-141.995 314.709 0 250.539 229.717 454.656 512 454.656s512-204.117 512-454.656-229.717-454.656-512-454.656c-58.368 0-115.371 8.533-169.643 25.6l-273.408-137.557c-3.413-2.048-6.827-2.731-10.24-2.731zM512 928.427c-257.707 0-467.627-183.979-467.627-410.283 0-110.592 49.493-214.357 139.264-292.181 7.509-6.485 9.899-17.067 5.461-25.941l-83.285-180.565 224.597 113.323c5.12 2.731 11.264 3.072 17.067 1.365 52.565-17.408 107.861-26.283 164.523-26.283 258.048 0 467.627 183.979 467.627 410.283s-209.92 410.283-467.627 410.283zM619.179 323.243h-170.325c-12.288 0-22.187 9.899-22.187 22.187s9.899 22.187 22.187 22.187h63.147v232.448h-63.147c-12.288 0-22.187 9.899-22.187 22.187s9.899 22.187 22.187 22.187h85.333c12.288 0 22.187-9.899 22.187-22.187v-254.635h63.147c12.288 0 22.187-9.899 22.187-22.187-0.341-11.947-10.24-22.187-22.528-22.187zM512 715.435c-23.893 0-43.349 20.139-43.349 45.056s19.456 45.056 43.349 45.056 43.349-20.139 43.349-45.056c0-24.917-19.456-45.056-43.349-45.056zM510.635 761.856l0.341-1.365c0 1.024-0.341 1.365-0.341 1.365z" />
<glyph unicode="&#xe638;" glyph-name="ic-note" d="M533.163-51.2c-5.461 0-10.923 2.048-15.019 6.144-5.461 5.461-7.509 13.653-5.461 20.821l42.667 149.504c1.024 3.413 2.731 6.827 5.461 9.216l320.171 320.171c8.192 8.192 21.845 8.192 30.037 0l106.496-106.496c4.096-4.096 6.144-9.557 6.144-15.019s-2.389-10.923-6.144-15.019l-320.171-320.171c-2.731-2.731-5.803-4.437-9.216-5.461l-149.504-42.667c-1.365-0.683-3.413-1.024-5.461-1.024zM594.944 108.203l-30.72-107.179 107.179 30.72 301.056 301.056-76.459 76.459-301.056-301.056zM682.667 12.971v0zM795.686 339.053l30.17 30.17 106.68-106.68-30.17-30.17-106.68 106.68zM682.667-8.533c-5.461 0-10.923 2.048-15.019 6.144l-106.496 106.496c-8.192 8.192-8.192 21.845 0 30.037s21.845 8.192 30.037 0l106.496-106.496c8.192-8.192 8.192-21.845 0-30.037-4.096-4.096-9.557-6.144-15.019-6.144zM405.504 76.8h-384.341c-11.605 0-21.163 9.557-21.163 21.504v853.333c0 11.605 9.557 21.163 21.163 21.163h810.667c11.947 0 21.504-9.557 21.504-21.163v-384c0-11.947-9.557-21.163-21.163-21.163s-21.163 9.557-21.163 21.163v362.496h-768.341v-810.667h362.496c11.947 0 21.163-9.557 21.163-21.163s-9.216-21.504-20.821-21.504zM170.667 908.629v0zM213.333 951.637h-85.333v-149.504h85.333v149.504zM341.333 908.629v0zM384 951.637h-85.333v-149.504h85.333v149.504zM682.667 908.629v0zM725.333 951.637h-85.333v-149.504h85.333v149.504zM512 908.629v0zM554.667 951.637h-85.333v-149.504h85.333v149.504z" />
<glyph unicode="&#xe639;" glyph-name="ic-accordian" horiz-adv-x="2048" d="M1024-51.2c-10.24 0-20.48 3.413-28.444 11.378l-984.178 946.631c-15.929 14.791-15.929 39.822 0 54.613s40.96 14.791 56.889 0l955.733-919.324 955.733 919.324c15.929 14.791 40.96 14.791 56.889 0s15.929-39.822 0-54.613l-984.178-946.631c-7.964-7.964-18.204-11.378-28.444-11.378z" />
<glyph unicode="&#xe63a;" glyph-name="ic-id" horiz-adv-x="1887" d="M1847.925-51.2h-1808.62c-21.71 0-39.305 17.595-39.305 39.305v943.615c0 21.71 17.524 39.305 39.235 39.305 1821.816 3.335 1821.745 3.335 1836.502-11.494 7.379-7.379 11.494-17.382 11.494-27.812v-943.615c0-21.71-17.595-39.305-39.305-39.305zM78.611 27.411h1729.938v865.714c-200.571 1.632-1169.799 0.426-1729.938-0.639v-865.075zM1297.507 577.901h-314.515c-21.71 0-39.305 17.595-39.305 39.305s17.595 39.305 39.305 39.305h314.515c21.71 0 39.305-17.595 39.305-39.305s-17.595-39.305-39.305-39.305zM1454.728 420.608h-471.808c-21.71 0-39.305 17.595-39.305 39.305s17.595 39.305 39.305 39.305h471.808c21.71 0 39.305-17.595 39.305-39.305s-17.595-39.305-39.305-39.305zM1376.117 263.315h-393.197c-21.71 0-39.305 17.595-39.305 39.305s17.595 39.305 39.305 39.305h393.197c21.71 0 39.305-17.595 39.305-39.305s-17.595-39.305-39.305-39.305zM550.419 420.608c-86.77 0-157.293 70.523-157.293 157.293s70.523 157.293 157.293 157.293 157.293-70.523 157.293-157.293-70.523-157.293-157.293-157.293zM550.419 656.511c-43.35 0-78.611-35.261-78.611-78.611s35.261-78.611 78.611-78.611 78.611 35.261 78.611 78.611c0.071 43.35-35.261 78.611-78.611 78.611zM747.017 184.704h-393.197c-21.71 0-39.305 17.595-39.305 39.305 0 151.759 105.784 275.209 235.904 275.209s235.904-123.45 235.904-275.209c0-21.71-17.595-39.305-39.305-39.305zM396.318 263.315h308.271c-14.615 89.608-78.185 157.293-154.1 157.293-75.986 0-139.556-67.685-154.171-157.293z" />
<glyph unicode="&#xe63b;" glyph-name="ic-expand" d="M1002.667-51.2c0 0 0 0 0 0h-213.333c-12.8 0-21.333 8.533-21.333 21.333s8.533 21.333 21.333 21.333h162.133l-302.933 302.933c-8.533 8.533-8.533 21.333 0 29.867s21.333 8.533 29.867 0l302.933-302.933v162.133c0 12.8 8.533 21.333 21.333 21.333s21.333-8.533 21.333-21.333v-213.333c0 0 0 0 0 0v0c0 0 0 0 0 0s0 0 0 0v0c0-4.267 0-4.267 0-8.533s-4.267-4.267-4.267-8.533v0c0 0 0 0 0 0s0 0 0 0v0c0 0 0 0 0 0v0c0 0 0 0 0 0s0 0 0 0v0c0 0-4.267-4.267-8.533-4.267s-4.267 0-8.533 0v0c0 0 0 0 0 0s0 0 0 0v0c0 0 0 0 0 0zM21.333-51.2c0 0 0 0 0 0v0c0 0 0 0 0 0s0 0 0 0v0c-4.267 0-4.267 0-8.533 0s-4.267 4.267-8.533 4.267v0 0c0 0 0 0 0 0v0c0 0 0 0 0 0v0 0c0 0 0 0 0 0v0c0 0-4.267 4.267-4.267 8.533s0 4.267 0 8.533v0c0 0 0 0 0 0s0 0 0 0v0c0 0 0 0 0 0v213.333c0 12.8 8.533 21.333 21.333 21.333s21.333-8.533 21.333-21.333v-162.133l302.933 302.933c8.533 8.533 21.333 8.533 29.867 0s8.533-21.333 0-29.867l-302.933-302.933h162.133c12.8 0 21.333-8.533 21.333-21.333s-8.533-21.333-21.333-21.333h-213.333c0 0 0 0 0 0zM661.333 588.8c-4.267 0-12.8 0-17.067 4.267-8.533 8.533-8.533 21.333 0 29.867l307.2 307.2h-162.133c-12.8 0-21.333 8.533-21.333 21.333s8.533 21.333 21.333 21.333h213.333c0 0 0 0 0 0v0c0 0 0 0 0 0s0 0 0 0v0c4.267 0 4.267 0 8.533 0s4.267-4.267 8.533-4.267v0c0 0 0 0 0 0v0 0c0 0 0 0 0 0v0c0 0 0 0 0 0v0 0c0 0 4.267-4.267 4.267-8.533s0-4.267 0-8.533v0c0 0 0 0 0 0s0 0 0 0v0c0 0 0 0 0 0v-213.333c0-12.8-8.533-21.333-21.333-21.333s-21.333 8.533-21.333 21.333v162.133l-302.933-302.933c-4.267-8.533-12.8-8.533-17.067-8.533zM362.667 588.8c-4.267 0-12.8 0-17.067 4.267l-302.933 307.2v-162.133c0-12.8-8.533-21.333-21.333-21.333s-21.333 8.533-21.333 21.333v213.333c0 0 0 0 0 0v0c0 0 0 0 0 0s0 0 0 0v0c0 4.267 0 4.267 0 8.533s4.267 4.267 4.267 8.533v0c0 0 0 0 0 0v0c0 0 0 0 0 0v0c0 0 0 0 0 0v0c0 0 4.267 4.267 8.533 4.267s4.267 0 8.533 0v0c0 0 0 0 0 0s0 0 0 0v0c0 0 0 0 0 0h213.333c12.8 0 21.333-8.533 21.333-21.333s-8.533-21.333-21.333-21.333h-162.133l302.933-302.933c8.533-8.533 8.533-25.6 4.267-34.133-4.267-4.267-12.8-4.267-17.067-4.267z" />
<glyph unicode="&#xe63c;" glyph-name="ic-collapse" d="M1002.667-51.2c-4.267 0-12.8 0-17.067 4.267l-302.933 307.2v-162.133c0-12.8-8.533-21.333-21.333-21.333s-21.333 8.533-21.333 21.333v213.333c0 0 0 0 0 0v0c0 0 0 0 0 0s0 0 0 0v0c0 4.267 0 4.267 0 8.533s4.267 4.267 4.267 8.533v0c0 0 0 0 0 0s0 0 0 0v0c0 0 0 0 0 0v0c0 0 0 0 0 0s0 0 0 0v0c0 0 4.267 4.267 8.533 4.267s4.267 0 8.533 0v0c0 0 0 0 0 0s0 0 0 0v0c0 0 0 0 0 0h213.333c12.8 0 21.333-8.533 21.333-21.333s-8.533-21.333-21.333-21.333h-162.133l302.933-302.933c8.533-8.533 8.533-21.333 0-29.867 0-8.533-8.533-8.533-12.8-8.533zM21.333-51.2c-4.267 0-12.8 0-17.067 4.267-8.533 8.533-8.533 21.333 0 29.867l307.2 307.2h-162.133c-12.8 0-21.333 8.533-21.333 21.333s8.533 21.333 21.333 21.333h213.333c0 0 0 0 0 0v0c0 0 0 0 0 0s0 0 0 0v0c4.267 0 4.267 0 8.533 0s4.267-4.267 8.533-4.267v0 0c0 0 0 0 0 0v0c0 0 0 0 0 0v0 0c0 0 0 0 0 0v0c0 0 4.267-4.267 4.267-8.533s0-4.267 0-8.533v0c0 0 0 0 0 0s0 0 0 0v0c0 0 0 0 0 0v-213.333c0-12.8-8.533-21.333-21.333-21.333s-21.333 8.533-21.333 21.333v162.133l-302.933-302.933c-4.267-8.533-12.8-8.533-17.067-8.533zM661.333 588.8c0 0 0 0 0 0v0c0 0 0 0 0 0s0 0 0 0v0c-4.267 0-4.267 0-8.533 0s-4.267 4.267-8.533 4.267v0c0 0 0 0 0 0v0 0c0 0 0 0 0 0v0c0 0 0 0 0 0v0 0c0 0-4.267 4.267-4.267 8.533s0 4.267 0 8.533v0c0 0 0 0 0 0s0 0 0 0v0c0 0 0 0 0 0v213.333c0 12.8 8.533 21.333 21.333 21.333s21.333-8.533 21.333-21.333v-162.133l302.933 302.933c8.533 8.533 21.333 8.533 29.867 0s8.533-21.333 0-29.867l-302.933-302.933h162.133c12.8 0 21.333-8.533 21.333-21.333s-8.533-21.333-21.333-21.333h-213.333c0 0 0 0 0 0zM362.667 588.8c0 0 0 0 0 0h-213.333c-12.8 0-21.333 8.533-21.333 21.333s8.533 21.333 21.333 21.333h162.133l-307.2 302.933c-4.267 8.533-4.267 25.6 0 34.133s21.333 8.533 29.867 0l307.2-307.2v162.133c0 12.8 8.533 21.333 21.333 21.333s21.333-8.533 21.333-21.333v-213.333c0 0 0 0 0 0v0c0 0 0 0 0 0s0 0 0 0v0c0-4.267 0-4.267 0-8.533s-4.267-4.267-4.267-8.533v0c0 0 0 0 0 0v0c0 0 0 0 0 0v0c0 0 0 0 0 0v0c0 0-4.267-4.267-8.533-4.267s-4.267 0-8.533 0v0c0 0 0 0 0 0s0 0 0 0v0c0 0 0 0 0 0z" />
<glyph unicode="&#xe63d;" glyph-name="ic-double-arrow" d="M20.48-51.2c-6.827 0-10.24 3.413-13.653 6.827-6.827 6.827-6.827 20.48 0 30.72l474.453 474.453-474.453 474.453c-6.827 6.827-6.827 20.48 0 30.72s20.48 6.827 30.72 0l491.52-491.52c6.827-6.827 6.827-20.48 0-30.72l-491.52-488.107c-6.827-3.413-10.24-6.827-17.067-6.827zM512-51.2c-6.827 0-10.24 3.413-13.653 6.827-6.827 6.827-6.827 20.48 0 30.72l474.453 474.453-474.453 474.453c-6.827 6.827-6.827 20.48 0 30.72s20.48 6.827 30.72 0l491.52-491.52c6.827-6.827 6.827-20.48 0-30.72l-494.933-488.107c-3.413-3.413-6.827-6.827-13.653-6.827z" />
<glyph unicode="&#xe63e;" glyph-name="ic-fileexpired" d="M341.333 247.467c-117.76 0-213.333 95.573-213.333 213.333s95.573 213.333 213.333 213.333c99.328 0 187.051-70.315 208.555-167.253 2.389-11.605-4.779-22.869-16.384-25.259-11.264-2.389-22.869 4.779-25.259 16.384-17.067 77.141-87.381 133.461-166.912 133.461-94.208 0-170.667-76.459-170.667-170.667s76.459-170.667 170.667-170.667c11.947 0 21.163-9.557 21.163-21.163s-9.216-21.504-21.163-21.504zM384 418.133h-63.829c-11.947 0-21.163 9.557-21.163 21.163v106.837c0 11.947 9.557 21.163 21.163 21.163s21.163-9.216 21.163-21.163v-85.333h42.667c11.947 0 21.163-9.557 21.163-21.163 0.341-11.947-9.216-21.504-21.163-21.504zM1002.837-51.2h-512c-7.509 0-14.336 3.755-18.091 10.24s-4.096 13.995-1.024 20.821l256 512c7.168 14.336 31.061 14.336 38.229 0l256-512c3.413-6.485 3.072-14.336-1.024-20.821s-10.923-10.24-18.091-10.24zM525.312-8.533h443.051l-221.525 443.051-221.525-443.051zM746.837 111.616c-11.947 0-21.163 9.557-21.163 21.163v139.605c0 11.947 9.557 21.163 21.163 21.163 11.947 0 21.504-9.557 21.504-21.163v-139.605c-0.341-11.605-9.899-21.163-21.504-21.163zM746.837 76.8c-11.605 0-21.163-9.557-21.163-21.504 0-11.605 9.557-21.163 21.163-21.163s21.504 9.557 21.504 21.163c-0.341 11.947-9.899 21.504-21.504 21.504v0zM469.333 34.133h-447.829c-11.947 0-21.504 9.557-21.504 21.163v896c0 11.947 9.557 21.504 21.504 21.504h469.333c5.803 0 10.923-2.389 15.019-6.144l213.333-213.333c4.096-4.096 6.144-9.557 6.144-15.019v-192.171h-42.667v183.296l-200.704 200.704h-439.296v-853.333h426.667v-42.667zM704.171 716.8h-213.333c-11.947 0-21.163 9.557-21.163 21.163v213.333c0 11.947 9.557 21.504 21.163 21.504s21.163-9.557 21.163-21.504v-192.171h192.171c11.947 0 21.163-9.557 21.163-21.504 0-11.264-9.557-20.821-21.163-20.821z" />
<glyph unicode="&#xe63f;" glyph-name="ic-filerefresh" d="M756.736-51.2c-40.619 0-80.896 9.899-117.419 29.013-57.344 30.037-98.987 79.531-117.419 139.605s-10.923 123.221 20.48 177.835c31.403 54.955 83.627 94.549 146.091 111.957 62.805 17.408 129.024 10.581 186.368-19.456 37.547-19.456 68.267-47.445 90.112-81.237l15.36 57.344c3.072 11.264 15.019 18.432 26.965 15.36s19.115-14.336 16.043-25.941l-31.061-116.395c-0.341-1.365-0.683-2.731-1.365-4.096v0 0 0 0c-0.341-0.683-0.683-1.365-1.365-2.048v0 0c-2.731-4.096-6.827-7.509-11.947-8.875 0 0 0 0 0 0v0c-0.341 0-0.683-0.341-1.024-0.341-3.755-1.024-7.851-1.024-11.605 0l-121.515 29.696c-11.947 3.072-19.115 14.336-16.043 25.941 3.072 11.264 15.36 18.091 26.965 15.36l79.531-19.456c-18.091 32.427-45.739 59.051-80.213 77.483-46.763 24.576-101.035 30.379-152.576 16.043s-93.867-46.763-119.808-91.819c-25.6-44.715-31.744-96.597-16.725-145.749s49.152-89.771 95.915-114.347c46.763-24.576 101.035-30.379 152.576-16.043 11.947 3.072 24.235-3.072 27.648-14.336s-3.413-23.211-15.019-26.283c-22.869-6.144-46.080-9.216-68.949-9.216zM489.813 36.864h-467.627c-12.288 0-22.187 9.557-22.187 21.163v893.611c0 11.605 9.899 21.163 22.187 21.163h489.813c5.803 0 11.605-2.389 15.701-6.144l222.549-212.651c4.096-4.096 6.485-9.557 6.485-15.019l-0.341-234.155h-44.373l0.341 225.28-209.579 200.363h-458.411v-850.944h445.44v-42.667zM734.891 717.483h-222.891c-12.288 0-22.187 9.557-22.187 21.163v212.992c0 11.605 9.899 21.163 22.187 21.163s22.187-9.557 22.187-21.163v-191.488h200.363c12.288 0 22.187-9.557 22.187-21.163s-9.557-21.504-21.845-21.504z" />
<glyph unicode="&#xe640;" glyph-name="ic-filedownload" d="M447.829 34.133h-426.667c-11.605 0-21.163 9.557-21.163 21.163v896.341c0 11.605 9.557 21.163 21.163 21.163h469.333c5.803 0 10.923-2.389 15.019-6.144l213.333-213.333c4.096-4.096 6.144-9.557 6.144-15.019v-170.667h-42.325v161.451l-200.704 201.045h-439.296v-853.333h405.504v-42.667zM703.829 716.8h-213.333c-11.947 0-21.163 9.557-21.163 21.163v213.675c0 11.947 9.557 21.163 21.163 21.163s21.504-9.557 21.504-21.163v-191.829h191.829c11.947 0 21.163-9.557 21.163-21.163s-9.216-21.845-21.163-21.845zM746.837-51.2c-152.917 0-277.163 124.587-277.163 277.163s124.587 277.163 277.163 277.163 277.163-124.245 277.163-277.163-124.587-277.163-277.163-277.163zM746.837 460.8c-129.707 0-234.837-105.131-234.837-234.837s105.131-234.837 234.837-234.837 234.837 105.131 234.837 234.837-105.472 234.837-234.837 234.837zM746.837 88.405c-5.461 0-10.923 2.048-15.019 6.144l-93.184 93.184c-8.192 8.192-8.192 21.845 0 30.037s21.845 8.192 30.037 0l56.661-56.661v181.248c0 11.947 9.557 21.163 21.163 21.163s21.163-9.557 21.163-21.163v-181.248l56.661 56.661c8.192 8.192 21.845 8.192 30.037 0s8.192-21.845 0-30.037l-93.184-93.184c-3.755-4.096-9.216-6.144-14.336-6.144z" />
<glyph unicode="&#xe641;" glyph-name="ic-fileview" d="M469.333 34.133h-448.171c-11.605 0-21.163 9.557-21.163 21.163v896.341c0 11.605 9.557 21.163 21.163 21.163h469.333c5.803 0 10.923-2.389 15.019-6.144l213.333-213.333c4.096-4.096 6.144-9.557 6.144-15.019v-191.829h-42.325v182.955l-200.704 200.704h-439.296v-853.333h426.667v-42.667zM703.829 716.8h-213.333c-11.947 0-21.163 9.557-21.163 21.163v213.675c0 11.947 9.557 21.163 21.163 21.163s21.504-9.557 21.504-21.163v-191.829h191.829c11.947 0 21.163-9.557 21.163-21.163s-9.216-21.845-21.163-21.845zM738.304 50.859c-101.376 0-183.637 82.261-183.637 183.637s82.261 183.637 183.637 183.637 183.637-82.261 183.637-183.637-82.261-183.637-183.637-183.637zM738.304 375.467c-77.824 0-140.971-63.147-140.971-140.971s63.147-140.971 140.971-140.971 140.971 63.147 140.971 140.971-63.147 140.971-140.971 140.971zM1002.837-51.2c-5.461 0-10.923 2.048-15.019 6.144l-149.504 149.504c-8.192 8.192-8.192 21.845 0 30.037s21.845 8.192 30.037 0l149.504-149.504c8.192-8.192 8.192-21.845 0-30.037-4.437-4.096-9.899-6.144-15.019-6.144z" />
<glyph unicode="&#xe642;" glyph-name="ic-filepass" d="M445.935 34.684h-429.419c-9.91 0-16.516 6.606-16.516 16.516v905.084c0 9.91 6.606 16.516 16.516 16.516h472.361c3.303 0 9.91-3.303 13.213-3.303l214.71-214.71c3.303-3.303 3.303-6.606 3.303-13.213v-171.768h-33.032v165.161l-204.8 204.8h-449.239v-872.052h412.903v-33.032zM706.89 725.058h-214.71c-9.91 0-16.516 6.606-16.516 16.516v214.71c0 9.91 6.606 16.516 16.516 16.516s16.516-6.606 16.516-16.516v-198.194h198.194c9.91 0 16.516-6.606 16.516-16.516s-9.91-16.516-16.516-16.516zM749.832-51.2c-151.948 0-274.168 122.219-274.168 274.168s122.219 274.168 274.168 274.168 274.168-122.219 274.168-274.168-122.219-274.168-274.168-274.168zM749.832 467.406c-132.129 0-241.135-109.006-241.135-241.135s109.006-241.135 241.135-241.135 241.135 109.006 241.135 241.135-109.006 241.135-241.135 241.135zM726.71 97.445c-3.303 0-9.91 3.303-13.213 3.303l-118.916 118.916c-6.606 6.606-6.606 16.516 0 23.123s16.516 6.606 23.123 0l105.703-105.703 151.948 168.465c6.606 6.606 16.516 6.606 23.123 0s6.606-16.516 0-23.123l-165.161-181.677c0 0-3.303-3.303-6.606-3.303 0 0 0 0 0 0z" />
<glyph unicode="&#xe643;" glyph-name="ic-filexml" d="M576.853 160.427c-10.24 0-20.48 10.24-20.48 20.48v143.36l-23.893-40.96c-3.413-6.827-10.24-10.24-17.067-10.24s-13.653 3.413-17.067 10.24l-27.307 44.373v-143.36c0-10.24-10.24-20.48-20.48-20.48s-23.893 6.827-23.893 20.48v221.867c0 10.24 6.827 17.067 17.067 20.48s20.48 0 23.893-10.24l47.787-78.507 44.373 78.507c3.413 6.827 13.653 13.653 23.893 10.24s17.067-10.24 17.067-20.48v-221.867c-3.413-13.653-13.653-23.893-23.893-23.893zM771.413 160.427h-109.227c-10.24 0-20.48 10.24-20.48 20.48v221.867c0 10.24 10.24 20.48 20.48 20.48s20.48-10.24 20.48-20.48v-201.387h88.747c10.24 0 20.48-10.24 20.48-20.48s-10.24-20.48-20.48-20.48zM361.813 160.427c-6.827 0-17.067 3.413-20.48 13.653l-105.813 221.867c-3.413 10.24 0 23.893 10.24 27.307 10.24 6.827 23.893 0 27.307-10.24l105.813-221.867c3.413-10.24 0-23.893-10.24-27.307 0 0-3.413-3.413-6.827-3.413zM256 160.427c-3.413 0-6.827 0-10.24 3.413-10.24 3.413-13.653 17.067-10.24 27.307l105.813 221.867c3.413 10.24 17.067 13.653 27.307 10.24s13.653-17.067 10.24-27.307l-105.813-221.867c0-6.827-6.827-13.653-17.067-13.653zM918.187-51.2h-812.373c-10.24 0-20.48 10.24-20.48 20.48v983.040c0 10.24 10.24 20.48 20.48 20.48h552.96c6.827 0 10.24-3.413 13.653-6.827l256-256c6.827-3.413 10.24-10.24 10.24-13.653v-723.627c0-13.653-10.24-23.893-20.48-23.893zM126.293-10.24h768v696.32l-242.347 242.347h-525.653v-938.667zM918.187 672.427h-256c-10.24 0-20.48 10.24-20.48 20.48v259.413c0 10.24 10.24 20.48 20.48 20.48s20.48-10.24 20.48-20.48v-235.52h235.52c10.24 0 20.48-10.24 20.48-20.48s-10.24-23.893-20.48-23.893z" />
<glyph unicode="&#xe644;" glyph-name="ic-filepdf" d="M918.187-51.2h-812.373c-10.24 0-20.48 10.24-20.48 20.48v983.040c0 10.24 10.24 20.48 20.48 20.48h552.96c6.827 0 10.24-3.413 13.653-6.827l256-256c6.827-3.413 10.24-10.24 10.24-13.653v-723.627c0-13.653-10.24-23.893-20.48-23.893zM126.293-10.24h768v696.32l-242.347 242.347h-525.653v-938.667zM918.187 672.427h-256c-10.24 0-20.48 10.24-20.48 20.48v259.413c0 10.24 10.24 20.48 20.48 20.48s20.48-10.24 20.48-20.48v-235.52h235.52c10.24 0 20.48-10.24 20.48-20.48s-10.24-23.893-20.48-23.893zM703.147 153.6c-10.24 0-20.48 10.24-20.48 20.48v221.867c0 10.24 10.24 20.48 20.48 20.48h95.573c10.24 0 20.48-10.24 20.48-20.48s-10.24-20.48-20.48-20.48h-75.093v-201.387c3.413-10.24-6.827-20.48-20.48-20.48zM774.827 249.173h-71.68c-10.24 0-20.48 10.24-20.48 20.48s10.24 20.48 20.48 20.48h71.68c10.24 0 20.48-10.24 20.48-20.48s-10.24-20.48-20.48-20.48zM529.067 153.6h-40.96c-10.24 0-20.48 10.24-20.48 20.48v221.867c0 10.24 10.24 20.48 20.48 20.48h40.96c58.027 0 95.573-54.613 95.573-133.12s-37.547-129.707-95.573-129.707zM512 197.973h17.067c40.96 0 54.613 47.787 54.613 88.747s-13.653 88.747-54.613 88.747h-17.067v-177.493zM276.48 153.6c-10.24 0-20.48 10.24-20.48 20.48v221.867c0 10.24 10.24 20.48 20.48 20.48h54.613c64.853 0 95.573-44.373 95.573-85.333s-30.72-85.333-95.573-85.333h-34.133v-71.68c0-10.24-6.827-20.48-20.48-20.48zM296.96 290.133h30.72c51.2 0 54.613 34.133 54.613 40.96s-3.413 44.373-54.613 44.373h-30.72v-85.333z" />
<glyph unicode="" glyph-name="ic-filepdf" d="M918.187-51.2h-812.373c-10.24 0-20.48 10.24-20.48 20.48v983.040c0 10.24 10.24 20.48 20.48 20.48h552.96c6.827 0 10.24-3.413 13.653-6.827l256-256c6.827-3.413 10.24-10.24 10.24-13.653v-723.627c0-13.653-10.24-23.893-20.48-23.893zM126.293-10.24h768v696.32l-242.347 242.347h-525.653v-938.667zM918.187 672.427h-256c-10.24 0-20.48 10.24-20.48 20.48v259.413c0 10.24 10.24 20.48 20.48 20.48s20.48-10.24 20.48-20.48v-235.52h235.52c10.24 0 20.48-10.24 20.48-20.48s-10.24-23.893-20.48-23.893zM703.147 153.6c-10.24 0-20.48 10.24-20.48 20.48v221.867c0 10.24 10.24 20.48 20.48 20.48h95.573c10.24 0 20.48-10.24 20.48-20.48s-10.24-20.48-20.48-20.48h-75.093v-201.387c3.413-10.24-6.827-20.48-20.48-20.48zM774.827 249.173h-71.68c-10.24 0-20.48 10.24-20.48 20.48s10.24 20.48 20.48 20.48h71.68c10.24 0 20.48-10.24 20.48-20.48s-10.24-20.48-20.48-20.48zM529.067 153.6h-40.96c-10.24 0-20.48 10.24-20.48 20.48v221.867c0 10.24 10.24 20.48 20.48 20.48h40.96c58.027 0 95.573-54.613 95.573-133.12s-37.547-129.707-95.573-129.707zM512 197.973h17.067c40.96 0 54.613 47.787 54.613 88.747s-13.653 88.747-54.613 88.747h-17.067v-177.493zM276.48 153.6c-10.24 0-20.48 10.24-20.48 20.48v221.867c0 10.24 10.24 20.48 20.48 20.48h54.613c64.853 0 95.573-44.373 95.573-85.333s-30.72-85.333-95.573-85.333h-34.133v-71.68c0-10.24-6.827-20.48-20.48-20.48zM296.96 290.133h30.72c51.2 0 54.613 34.133 54.613 40.96s-3.413 44.373-54.613 44.373h-30.72v-85.333z" />
<glyph unicode="ic-up" glyph-name="ic-up" horiz-adv-x="2182" d="M0.017-33.576c0 0 88.537 104.155 208.030 244.772 329.964 292.020 837.632 741.239 837.632 741.239l1114.191-986.012h-2159.852z" />
<glyph unicode="ic-star" glyph-name="ic-bookmark" d="M824.96-43.2c-5.12 0-9.92 1.6-14.080 4.8l-298.88 218.88-298.88-218.88c-8.32-6.080-19.84-6.080-28.48 0-8.32 6.080-11.84 16.96-8.64 26.88l120 359.68-279.040 219.2c-8 6.4-11.2 16.96-8 26.56s12.48 16 22.72 16h337.92l119.68 338.88c3.52 9.6 12.48 16 22.72 16s19.2-6.4 22.72-16l119.68-338.88h337.6c10.24 0 19.2-6.4 22.72-16s0.32-20.48-8-26.56l-278.72-219.2 120-359.68c3.2-9.92-0.32-20.8-8.64-26.88-4.48-3.2-9.28-4.8-14.4-4.8zM101.44 561.92l237.76-186.56c8-6.4 11.2-16.96 8-26.56l-101.76-304 252.16 184.96c8.32 6.080 19.84 6.080 28.48 0l252.48-184.96-101.44 304c-3.2 9.6 0 20.16 8 26.56l237.44 186.56h-285.44c-10.24 0-19.2 6.4-22.72 16l-102.4 290.88-102.72-290.56c-3.52-9.6-12.48-16-22.72-16h-285.12z" />
<glyph unicode="ic-shield-yellow" glyph-name="ic-shield-yellow" horiz-adv-x="859" d="M14.225 972.606c-7.852-0.001-14.216-6.365-14.217-14.217v-314.166c0-291.066 162.823-558.156 422.794-693.642 1.903-1.008 4.159-1.6 6.553-1.6s4.65 0.592 6.631 1.637c259.89 135.446 422.995 402.53 422.995 693.604v314.166c-0.001 7.852-6.365 14.216-14.217 14.217h-830.537zM28.442 944.172h802.103v-299.949c0-277.889-154.474-532.676-401.191-664.43-246.708 131.751-400.913 386.531-400.913 664.43v299.949zM422.912 753.296c-7.781-0.094-14.052-6.423-14.052-14.218 0-0.078 0.001-0.156 0.002-0.234v-264.95c-0.001-0.060-0.001-0.131-0.001-0.201 0-7.853 6.365-14.219 14.219-14.219s14.219 6.365 14.219 14.219c0 0.071-0.001 0.141-0.002 0.212v264.951c0.001 0.066 0.002 0.144 0.002 0.222 0 7.853-6.365 14.219-14.219 14.219-0.059 0-0.117 0-0.176-0.001zM423.079 394.534c-3.745-0.029-7.232-1.594-9.775-4.111-12.005-4.495-21.769-14.022-21.769-27.433 0-3.98 1.637-7.58 4.274-10.161 4.607-11.799 14.010-21.383 27.27-21.383 3.783 0.023 7.282 1.588 9.831 4.111 11.99 4.502 21.769 14.032 21.769 27.433-0.008 3.914-1.621 7.48-4.219 10.051-4.575 11.859-14.076 21.493-27.381 21.493zM423.079 366.101c2.14 0 3.165-0.969 3.165-3.11s-1.025-3.11-3.165-3.11c-2.14 0-3.11 0.969-3.11 3.11s0.969 3.11 3.11 3.11z" />
<glyph unicode="ic-shield-red" glyph-name="ic-shield-red" horiz-adv-x="851" d="M14.222 972.8c-7.854-0.001-14.221-6.368-14.222-14.222v-314.611c0-290.842 161.379-557.932 418.611-693.5 1.931-1.044 4.226-1.658 6.665-1.658 2.396 0 4.654 0.592 6.634 1.639 257.451 135.246 418.867 402.398 418.867 693.52v314.611c-0.001 7.854-6.368 14.221-14.222 14.222h-822.333zM28.444 944.356h793.889v-300.389c0-277.998-152.926-532.769-397.111-664.278-243.882 131.794-396.778 386.591-396.778 664.278v300.389zM230.556 778.078c-7.854-0.003-14.219-6.37-14.219-14.224 0-3.982 1.636-7.581 4.272-10.163l389.447-389.391c2.593-2.697 6.231-4.373 10.26-4.373 7.856 0 14.224 6.368 14.224 14.224 0 4.030-1.676 7.668-4.368 10.256l-389.449 389.393c-2.584 2.64-6.184 4.277-10.167 4.278zM619.833 778.078c-3.717-0.053-7.239-1.681-9.775-4.275l-389.447-389.392c-2.697-2.593-4.373-6.231-4.373-10.26 0-7.856 6.368-14.224 14.224-14.224 4.030 0 7.668 1.676 10.256 4.368l389.449 389.394c2.642 2.585 4.28 6.186 4.28 10.171 0 7.856-6.368 14.224-14.224 14.224-0.137 0-0.274-0.002-0.41-0.006z" />
<glyph unicode="ic-shield-green" glyph-name="ic-shield-green" horiz-adv-x="851" d="M663.813 691.614c-0.034 0-0.073 0-0.113 0-3.817 0-7.281-1.503-9.836-3.95l-314.745-293.581-98.381 98.381c-2.592 2.698-6.23 4.373-10.26 4.373-7.855 0-14.223-6.368-14.223-14.223 0-4.030 1.676-7.668 4.369-10.255l108.106-108.051c2.577-2.592 6.146-4.199 10.090-4.199 3.747 0 7.154 1.449 9.695 3.817l324.797 302.912c2.884 2.612 4.688 6.372 4.688 10.553 0 7.842-6.348 14.203-14.185 14.223zM14.257 972.757c-7.853-0.001-14.22-6.368-14.221-14.221v-314.307c0-291.088 161.077-558.218 418.575-693.775 1.924-1.036 4.21-1.644 6.638-1.644s4.714 0.609 6.714 1.682c257.419 135.518 418.778 402.641 418.778 693.737v314.307c-0.001 7.853-6.368 14.22-14.221 14.221h-822.265zM28.477 944.315h793.822v-300.086c0-277.967-152.915-532.665-397.077-664.444-244.128 131.783-396.745 386.485-396.745 664.444v300.086z" />
<glyph unicode="ic-saveas" glyph-name="ic-saveas" d="M1002.667-51.2h-981.333c-11.947 0-21.333 9.387-21.333 21.333v853.333c0 5.973 2.56 11.093 6.827 14.507l128 128c3.413 4.267 8.533 6.827 14.507 6.827h853.333c11.947 0 21.333-9.387 21.333-21.333v-981.333c0-11.947-9.387-21.333-21.333-21.333zM42.667-8.533h938.667v938.667h-822.613l-116.053-116.053v-822.613zM512 145.92c-11.947 0-21.333 9.387-21.333 21.333v586.24c0 11.947 9.387 21.333 21.333 21.333s21.333-9.387 21.333-21.333v-587.093c0-10.24-9.387-20.48-21.333-20.48zM512 145.92c-5.973 0-11.093 1.707-15.36 5.973l-239.787 240.64c-8.533 8.533-8.533 22.187 0 30.72s21.333 8.533 30.72 0l224.427-226.133 225.28 225.28c8.533 8.533 22.187 8.533 29.867 0s8.533-22.187 0-30.72l-239.787-238.933c-4.267-4.267-9.387-6.827-15.36-6.827z" />
<glyph unicode="ic-right" glyph-name="ic-right" d="M189.456-22.571c9.975 0.716 18.955 4.473 26.149 10.338l622.942 450.026c11.74 8.557 19.282 22.262 19.282 37.727s-7.542 29.17-19.149 37.635l-624.678 450.819c-7.556 5.516-17.028 8.825-27.273 8.825-25.71 0-46.553-20.842-46.553-46.553 0-15.465 7.541-29.169 19.147-37.635l572.496-413.183-572.364-413.455c-12.049-8.529-19.82-22.412-19.82-38.11 0-25.709 20.841-46.55 46.55-46.55 1.151 0 2.291 0.042 3.421 0.124z" />
<glyph unicode="ic-refresh" glyph-name="ic-refresh" horiz-adv-x="1344" d="M1142.5 611.175l-215.625-237.75c-6.697-7.135-10.811-16.763-10.811-27.352 0-22.094 17.91-40.004 40.004-40.004 11.957 0 22.689 5.246 30.020 13.562l149.288 164.544 124.5-173.25c7.356-10.141 19.167-16.66 32.501-16.66 22.11 0 40.033 17.923 40.033 40.033 0 8.777-2.825 16.894-7.614 23.493l-182.295 253.384zM36.25 591.175c-21.458-0.806-38.547-18.396-38.547-39.977 0-9.005 2.975-17.315 7.997-24.001l182.301-253.272 215.75 237.75c6.697 7.134 10.811 16.762 10.811 27.351 0 22.094-17.91 40.004-40.004 40.004-11.957 0-22.689-5.246-30.019-13.562l-149.413-164.669-124.5 173.25c-7.323 10.425-19.294 17.155-32.836 17.155-0.541 0-1.080-0.011-1.616-0.032zM661.375 968.8c-283.095 0-513.625-228.785-513.625-510.375 0-51.272-0.85-73.205 8.375-106.25l77 21.5c-6.794 24.335-5.375 32.379-5.375 84.75 0 238.053 193.468 430.375 433.625 430.375 136.336 0 257.476-62.225 337-159.5l61.875 50.625c-94.182 115.205-238.141 188.875-398.875 188.875zM1172.375 524.675l-77.5-19.875c2.219-8.662 3.047-13.387 3.25-14.625-0.486-1.985-3-11.918-3-31.75 0-238.075-193.573-430.5-433.75-430.5-129.772 0-245.613 56.386-325.125 145.75l-59.75-53.125c94.12-105.781 231.865-172.625 384.875-172.625 283.112 0 513.75 228.895 513.75 510.5 0 17.43 0.141 11.103 2.125 22 0.993 5.449 1.149 14.8 0.128 21.5-1.024 6.7-2.508 13.025-5 22.75z" />
<glyph unicode="ic-radio-dot" glyph-name="ic-radio-dot" horiz-adv-x="1018" d="M733.307 460.8c0-122.22-99.079-221.301-221.301-221.301s-221.301 99.079-221.301 221.301c0 122.22 99.079 221.301 221.301 221.301s221.301-99.079 221.301-221.301z" />
<glyph unicode="ic-radio-btn-sel" glyph-name="ic-radio-btn-sel" horiz-adv-x="1069" d="M534.261 972.8c-282.506 0-512-229.494-512-512s229.494-512 512-512c282.506 0 512 229.494 512 512s-229.494 512-512 512zM534.261 928.278c258.445 0 467.478-209.033 467.478-467.478s-209.033-467.478-467.478-467.478c-258.445 0-467.478 209.033-467.478 467.478s209.033 467.478 467.478 467.478zM756.87 460.8c0-122.943-99.665-222.609-222.609-222.609s-222.609 99.665-222.609 222.609c0 122.943 99.665 222.609 222.609 222.609s222.609-99.665 222.609-222.609z" />
<glyph unicode="ic-radio-btn" glyph-name="ic-radio-btn" horiz-adv-x="1018" d="M512.007 969.791c-280.846 0-508.991-228.145-508.991-508.991s228.145-508.991 508.991-508.991c280.846 0 508.991 228.145 508.991 508.991s-228.145 508.991-508.991 508.991zM512.007 925.531c256.926 0 464.731-207.805 464.731-464.731s-207.805-464.731-464.731-464.731c-256.926 0-464.731 207.805-464.731 464.731s207.805 464.731 464.731 464.731z" />
<glyph unicode="ic-question" glyph-name="ic-question" d="M512 972.787c-282.489 0-511.987-229.498-511.987-511.987s229.498-511.987 511.987-511.987c282.489 0 511.987 229.498 511.987 511.987 0 0.022 0 0.047 0 0.072 0 3.25-0.668 6.344-1.872 9.151 0.058-0.138 0.058-0.121 0.058-0.105s0 0.033 0 0.049c-5.192 278.010-230.931 502.819-510.173 502.819zM512 926.335c257.382 0 465.535-208.151 465.535-465.535s-208.151-465.535-465.535-465.535c-257.382 0-465.535 208.151-465.535 465.535s208.151 465.535 465.535 465.535zM512 728.453c-86.187 0-156.508-70.459-156.508-156.599-0.001-0.098-0.002-0.212-0.002-0.329 0-12.829 10.4-23.23 23.23-23.23s23.23 10.4 23.23 23.23c0 0.116-0.001 0.23-0.003 0.347 0 61.008 48.989 110.128 110.055 110.128 61.015 0 110.055-49.13 110.055-110.147 0-61.119-49.021-110.055-110.055-110.055-12.828-0.001-23.225-10.399-23.227-23.227v-133.283c-0.001-0.098-0.002-0.212-0.002-0.329 0-12.829 10.4-23.23 23.23-23.23s23.23 10.4 23.23 23.23c0 0.116-0.001 0.23-0.003 0.347v114.756c74.733 11.7 133.282 73.804 133.282 151.791 0 86.149-70.359 156.599-156.508 156.599zM512 239.601c-24.83 0-45.455-20.534-45.455-45.366s20.624-45.455 45.455-45.455c24.83 0 45.455 20.624 45.455 45.455-0.014 6.395-2.648 12.221-6.893 16.42-7.061 16.055-20.098 28.945-38.562 28.945zM512 195.235c0.303 0 0.998-0.694 0.998-0.998 0-0.289-0.675-0.939-0.998-0.998l-0.998 0.998c0 0.303 0.694 0.998 0.998 0.998z" />
<glyph unicode="ic-profile" glyph-name="ic-profile-glb" d="M992-51.2h-960c-13.12 0-24 10.88-24 24 0 3.84 0.64 92.48 44.16 180.16 31.36 62.4 136.32 101.12 281.92 154.56 16 5.76 32.64 11.84 49.28 18.24v96.64c-18.88 16.32-56.96 56.96-62.080 122.24-9.6 8.64-16.96 22.72-21.12 40.96-6.72 28.16-4.8 64.96 17.6 87.68-0.32 1.6-0.96 3.52-1.28 5.12-14.4 47.36-40.96 135.040-3.84 185.28 9.6 12.8 26.88 27.84 57.92 31.68 27.2 47.36 111.36 62.72 180.16 61.12 80.32-1.92 179.52-29.44 193.6-100.16 11.84-59.84-17.92-135.36-34.24-176-1.28-2.88-2.24-5.44-3.2-7.68 20.48-21.76 23.68-56.96 16.64-86.4-4.16-18.24-11.84-32.32-21.12-40.96-5.12-65.28-42.88-105.92-62.080-122.24v-96.96c16.64-6.4 33.28-12.16 49.28-18.24 145.6-53.44 250.88-92.16 282.24-154.56 43.84-87.68 44.16-176.32 44.16-180.16 0-13.76-10.88-24.32-24-24.32zM57.6-3.2h908.8c-2.88 29.76-11.84 82.88-37.76 134.72-22.72 45.44-130.88 85.12-255.68 131.2-21.12 7.68-42.88 15.68-65.28 24-9.28 3.52-15.68 12.48-15.68 22.4v125.12c0 8 3.84 15.36 10.56 19.84 1.92 1.28 51.84 36.48 51.84 105.28 0 10.56 7.040 19.52 16.64 22.72 4.16 6.72 9.6 25.6 6.72 42.56-1.6 8.96-4.8 14.72-9.92 17.28-8 4.16-13.12 12.48-13.12 21.44 0 7.68 3.2 15.36 10.56 34.24 14.4 36.16 40.96 103.040 31.68 149.12-6.72 33.92-68.8 59.84-147.52 61.76-77.44 1.6-134.080-20.16-139.52-41.92-2.56-10.56-12.16-18.24-23.36-18.24-25.6 0-32.96-10.24-35.52-13.44-22.72-30.72 1.92-112 11.2-142.72 4.48-15.36 6.72-22.080 6.72-28.8 0-8.96-5.12-17.28-13.12-21.44-5.12-2.56-8.64-8.32-9.92-17.28-2.88-17.28 2.56-36.16 6.72-42.56 9.6-3.2 16.64-12.16 16.64-22.72 0-69.76 51.52-104.96 51.84-105.28 6.72-4.48 10.56-11.84 10.56-19.84v-125.12c0-9.92-6.080-18.88-15.68-22.4-22.4-8.32-44.16-16.32-65.28-24-125.12-46.080-232.96-85.76-255.68-131.2-25.6-51.84-34.56-104.96-37.44-134.72z" />
</font>
</defs>
</svg>
